<?xml version="1.0" encoding="UTF-8"?>
<svg id="Capa_1" data-name="Capa 1" xmlns="http://www.w3.org/2000/svg" version="1.1" viewBox="0 0 1190.55 841.89">
  <defs>
    <style>
      .cls-1 {
        fill: none;
        stroke: #fff;
        stroke-miterlimit: 10;
        stroke-width: 8px;
      }
    </style>
  </defs>
  <path class="cls-1" d="M186.05,254.07c6.03-5.61,12.66-8.42,19.88-8.42s15.11,3.72,23.67,11.15c53.44,46.99,80.16,92.99,80.16,138.02,0,48.53-27.21,97.48-81.63,146.85-9.12,8-17.88,11.99-26.3,11.99s-16.48-4-24.2-11.99c-46.71-47.97-70.06-95.94-70.06-143.91s26.16-95.87,78.48-143.7ZM158.7,318.87c-9.4,6.17-14.1,16.83-14.1,31.98s8,37.24,23.98,66.27c21.18,38.71,40.61,58.07,58.28,58.07,5.19,0,10.17-1.61,14.94-4.84,9.82-6.31,14.73-17.11,14.73-32.4s-7.72-37.17-23.14-65.64c-21.46-38.85-41.24-58.28-59.33-58.28-5.19,0-10.31,1.61-15.36,4.84Z"/>
  <path class="cls-1" d="M427.16,372.73l31.77-39.98,47.13,22.09c-1.54,5.75-3.33,11.36-5.37,16.83-2.03,5.47-3.05,11.08-3.05,16.83l-2.95,85.42v1.26c0,6.87,2.1,12.52,6.31,16.94,4.21,4.42,9.05,7.75,14.52,9.99l-42.08,51.34-45.87-39.97-54.7,39.97-44.39-35.98c8.13-9.68,12.2-19.36,12.2-29.03l1.47-95.52c0-6.73-5.19-13.47-15.57-20.2l31.98-39.98,46.92,22.09c-1.54,5.75-3.33,11.36-5.37,16.83-2.03,5.47-3.05,11.08-3.05,16.83l-2.73,85.42c-.28,6.73,2.24,13.82,7.57,21.25,1.68,2.1,3.92,3.16,6.73,3.16,7.01,0,17.88-6.38,32.61-19.15l1.47-86.26c0-6.73-5.19-13.47-15.57-20.2Z"/>
  <path class="cls-1" d="M608.73,363.48l24.62-30.72,67.12,48.6-6.31,24.83-2.74,67.75v1.26c0,6.87,2.1,12.52,6.31,16.94,4.21,4.42,8.97,7.75,14.31,9.99l-42.08,51.34c-10.38-8.13-18.34-15.36-23.88-21.67-5.54-6.31-8.31-19.28-8.31-38.92v-4.42l1.47-77.85c0-5.89-8.98-15.71-26.93-29.46l-8.42,13.25-4,79.53v1.26c0,6.87,2.1,12.52,6.31,16.94,4.21,4.42,9.05,7.75,14.52,9.99l-42.08,51.34-44.39-35.98c8-9.68,11.99-19.36,11.99-29.03l1.68-95.52c0-6.73-5.19-13.47-15.57-20.2l31.77-39.98,44.6,30.72Z"/>
  <path class="cls-1" d="M736.02,391.46c32.68-21.88,59.82-41.73,81.42-59.54,10.8,4.63,21.67,12.91,32.61,24.83,23.7,25.39,37.73,51.9,42.08,79.53.56,3.23.84,6.31.84,9.26,0,9.26-2.6,16.76-7.79,22.51l-69.85,89-90.05-44.39c9.54-19.78,14.31-36.89,14.31-51.34l-.42-49.02c-.42-10.1-1.47-17.04-3.16-20.83ZM792.62,384.09l-.63,89.42c1.26,6.87,6.1,12.24,14.52,16.09,8.42,3.86,13.99,5.79,16.73,5.79s4.59-.14,5.58-.42c12.34-2.8,18.51-10.59,18.51-23.35,0-2.95-.35-6.24-1.05-9.89-4.77-23.14-11.68-40.64-20.72-52.49-9.05-11.85-20.02-20.23-32.93-25.14Z"/>
  <path class="cls-1" d="M1010.59,423.23v-15.57c0-8.13-.98-22.93-2.95-44.39l65.22-71.96c-3.65,49.79-5.82,92.57-6.52,128.34,11.64-1.12,23.98-2.87,37.03-5.26l-1.47,63.54-34.93-.42c.98,25.53,2.95,46.36,5.89,62.49-24.69,2.39-56.04,8.7-94.05,18.94,12.9-24.54,21.95-52.04,27.14-82.47l-103.09-1.68,94.89-223.02,81.84-2.52c-52.18,53.58-92.71,111.16-121.61,172.73,14.59.98,26.02,1.47,34.29,1.47s14.38-.07,18.3-.21Z"/>
</svg>