<?xml version="1.0" encoding="UTF-8"?>
<svg id="Capa_1" data-name="Capa 1" xmlns="http://www.w3.org/2000/svg" viewBox="0 0 170.21 111.64">
  <defs>
    <style>
      .cls-1 {
        fill: #135d79;
        opacity: .99;
      }

      .cls-1, .cls-2, .cls-3 {
        stroke-width: 0px;
      }

      .cls-2 {
        fill: #262553;
      }

      .cls-3 {
        fill: #2c2741;
      }
    </style>
  </defs>
  <g>
    <path class="cls-2" d="M27.54.15L0,90.55h24.48l10.29-43.95c2.22-8.62,4.45-19.47,6.4-28.65h.56c2.23,9.04,4.45,20.03,6.68,28.65l1.47,6.26h-8.37v18.5h12.71l4.5,19.19h25.31L56.47.15h-28.93Z"/>
    <rect class="cls-2" x="91.24" y="28.43" width="23.92" height="62.12"/>
    <rect class="cls-2" x="91.24" width="23.92" height="23.92"/>
  </g>
  <path class="cls-1" d="M170.21,90.58l-11.38-20.34c3.99-2.73,6.56-7.11,6.56-13.46,0-12.44-9.22-16.13-19.97-16.13h-18.9v49.93h13.21v-39.48h4.76c5.22,0,7.99,1.38,7.99,5.68s-2.76,6.61-7.99,6.61h-.72l.02,10.45h1.62c.48,0,.95-.02,1.42-.04l8.62,16.79h14.75Z"/>
  <g>
    <path class="cls-3" d="M89.98,99.65h2.09v11.77h-2.09v-11.77Z"/>
    <path class="cls-3" d="M95.06,99.65h2.14l3.66,6.61,1.22,2.51h.07c-.1-1.22-.27-2.71-.27-4.02v-5.11h1.99v11.77h-2.14l-3.66-6.62-1.22-2.5h-.07c.1,1.25.27,2.66.27,3.97v5.15h-1.99v-11.77Z"/>
    <path class="cls-3" d="M106.05,109.91l1.22-1.43c.84.8,1.97,1.34,3.07,1.34,1.32,0,2.05-.6,2.05-1.52,0-.97-.76-1.28-1.83-1.73l-1.61-.7c-1.16-.48-2.38-1.4-2.38-3.12,0-1.88,1.66-3.32,3.95-3.32,1.37,0,2.71.57,3.63,1.5l-1.07,1.32c-.75-.64-1.55-1.01-2.55-1.01-1.12,0-1.84.52-1.84,1.38,0,.92.9,1.27,1.87,1.67l1.59.67c1.4.58,2.38,1.47,2.38,3.17,0,1.91-1.58,3.5-4.22,3.5-1.59,0-3.12-.63-4.24-1.72Z"/>
    <path class="cls-3" d="M118.67,101.41h-3.4v-1.76h8.88v1.76h-3.4v10.01h-2.09v-10.01Z"/>
    <path class="cls-3" d="M126.12,99.65h2.09v11.77h-2.09v-11.77Z"/>
    <path class="cls-3" d="M133.58,101.41h-3.4v-1.76h8.88v1.76h-3.4v10.01h-2.09v-10.01Z"/>
    <path class="cls-3" d="M140.97,106.26v-6.61h2.09v6.76c0,2.56.96,3.4,2.38,3.4s2.43-.84,2.43-3.4v-6.76h2.01v6.61c0,3.86-1.71,5.38-4.44,5.38s-4.47-1.51-4.47-5.38Z"/>
    <path class="cls-3" d="M155.19,101.41h-3.4v-1.76h8.88v1.76h-3.4v10.01h-2.09v-10.01Z"/>
    <path class="cls-3" d="M162.64,99.65h7.08v1.76h-4.99v3.02h4.23v1.76h-4.23v3.48h5.17v1.76h-7.26v-11.77Z"/>
  </g>
</svg>