<?xml version="1.0" encoding="UTF-8"?>
<svg id="Capa_2" data-name="Capa 2" xmlns="http://www.w3.org/2000/svg" viewBox="0 0 300.8 513.4">
  <defs>
    <style>
      .cls-1 {
        fill: #000;
      }

      .cls-1, .cls-2, .cls-3, .cls-4, .cls-5 {
        stroke-width: 0px;
      }

      .cls-2 {
        fill: #ffb300;
      }

      .cls-3 {
        fill: #81003f;
      }

      .cls-4 {
        fill: #ca0026;
      }

      .cls-5 {
        fill: #fff;
      }
    </style>
  </defs>
  <g id="Capa_1-2" data-name="Capa 1">
    <g>
      <rect class="cls-4" x="4.3" y="153.8" width="144.5" height="30"/>
      <rect class="cls-5" x="152.2" y="153.8" width="144.5" height="30"/>
      <path class="cls-4" d="M152.2,323.9v185.1c22.3-.1,44.1-2.2,65.3-6.3,45.1-8.6,79.1-48.1,79.1-95.7v-83.1"/>
      <path class="cls-5" d="M148.8,509v-185.1H4.3v83.1c0,47.4,33.9,86.9,78.9,95.7,21.4,4,43.2,6.1,65.6,6.3"/>
      <path class="cls-3" d="M50.8,454h0c.9-.1,2-.1,3.2-.3,0,0-7.5-11.4.6-20.8,0,0,5.8-10.1,17.1-2.9,0,0,4.8,4.9,5.1,12.8,0,0-6.6.3-10.5,11.3-1.3,4-2.5,9.5-2.7,17h-4.5s-1.3-3.9-.7-5.8c0,0-6,1-7.7.3,0,0-1.3,4.3.2,5.8l-4.8-.7s-1.2-3.5-.9-5.8c0,0-2.7,0-4.3-1.2,0,0-2.6,2.9-2.6,5.5l-4.8-2.2s.6-3.9,1.9-4.8c0,0-6.5-1.3-7.8-2.3l-1-5.6-4.5-23.7s12-3.6,16.1,8.2c0,0,.9,6.5-.3,12.1,0,0,.6,2.9,7.9,3.5,1.8-.3,3.3-.3,5-.4"/>
      <path class="cls-3" d="M48.9,424.4c.4-1.3,1.1-3.4,1.9-4,0,0-7.5-1.3-8.4-2l-3.6,5.3-5.5-1.6,1.9-4.3-8.2-2.9-2.1,4.3-4.6-2.6,2.7-4.6-7.2-2.6v-26s13-1.2,12.6,11.5c-.1,2-.4,4.5-1.3,7.4,0,0,11,2.9,14.9,1,0,0,10.3,14,15.1,16.6,0,0-1.7,2-3,4.8-.2.4-.4.9-.6,1.5h-5.1c.2-.4.3-.9.5-1.8"/>
      <path class="cls-3" d="M55.4,394.7c-3,1.5-6.2,2.9-9.7,4l-3-3.9s18.5-5,26.9-15.3l6-.7c.1.1-6.5,9-20.2,15.9"/>
      <path class="cls-3" d="M71.9,394.7c10.4-7.8,21.7-19.8,25.1-35.9l-3.4-6.8s-.4,23.8-31.2,42.7c-4.1,2.6-8.8,5-14.2,7.4l3.9,4.3c.1-.2,9.5-4,19.8-11.7"/>
      <path class="cls-3" d="M78,394.7h0c-6,5.4-13.9,10.5-23.6,14.9l3.5,3.6s13.7-4.3,27.5-18.5c6-6.3,12.3-14.5,17.3-25.2l-2.9-6.2c.1,0-4.2,16.2-21.8,31.4"/>
      <path class="cls-3" d="M90.5,394.7c-6.7,7.3-16.6,15.2-30.2,21l3.9,2.9s17.9-7.8,32.4-23.9c3.1-3.5,6.2-7.5,8.8-11.9l-1.6-7.8c-.1,0-3.6,9.2-13.3,19.7"/>
      <path class="cls-3" d="M117.6,377.6c-.8-9.4-4.7-15.1-5.5-19-.4-1.7-2.2-6.7-.2-9.6,3.7-5.3,10.1-4.8,14.2,4.3h4.8s-1.8-11.7-12.5-12.1c0,0-13.2-.3-12.6,13,0,0,1.5,8.8,5.3,18.4,0,0,3.8,6.7-.4,15.2,0,0-1.9,3.2-3.4,6.9-.9,2.2-1.6,4.7-1.5,6.7l4.6,4.6c-.7-5.1,1.1-9.4,1.9-11.3,1.1-1.9,6.2-7.9,5.3-17.1"/>
      <path class="cls-3" d="M119.4,412.7l-4.8-3.2s-.7-7.8,2.7-13.7c0,0,.1-.4.4-1.2,1.3-2.9,4.5-10.7,4-15.4l3.6,5.5s.2,4.8-2.8,10c-2.2,3.8-5.1,12.9-3.1,18"/>
      <path class="cls-3" d="M118.2,454h0c.8.1,1.6.1,2.2.1v3.9s-3.2.3-4.3-.3c0,0,.3,4.6,0,6.9,0,0,3.9,1,4.8,1l-.3,5.1s-3.5-.7-4.5-1.6l-.3,4.3s2.7,1.2,4.3.9l.3,4.9s-4.6-.3-5.8-1.6l-1.6,6.2h-29s-.7-21.5,19.4-9.7c0,0,7.4-3.2-2.7-19.8,0,0-1.2,0-3.1-.1-9.1-.3-16.6-6.5-19.1-19.5,0,0-1.2-6-5-10.2-1.5-1.6-3.4-2.9-5.5-3.5,0,0,18.9-9.4,23.2-15.3,0,0-6,9.7,2.2,15.7,0,0,2.8,1.2,6.2,3.1,4.6,2.6,10.3,6.4,12.5,10.9,0,0,18,4.1,17-10.9,0-.8-1.1-4.6-3.8-8.3-1.7-2.5-3.7-8.7-.3-15.8,0,0,1.5-2.9,2.6-5.7.3-1.2.7-2.5.7-3.4l1.1,3.4,1.5,4.8s-4.4,3.5-3.1,10.6c.9,5,5.1,8.8,6.4,14.2.3,2.9.2,7.4-2.1,10.9-1.3,2-8.2,9.2-20.5,5.1,0,0-1.9,8.5,4.3,13-.3.2,1,.5,2.3.7"/>
      <path class="cls-3" d="M125.9,356.1l5.8.1s6.9,4.8-.1,18.2c0,0-.9,3.2,0,5.1,0,0-12.2-7.1-5.7-23.4"/>
      <path class="cls-3" d="M61.4,380.8s-10,7.5-16,8.2c0,0-2.7.7-5.1,3.2l-4.3-2.6s0-3.6,4.3-4.6c0,0-7.5-5.3-8.1-7.5,0,0-3.2,1-4.3,3.9l-3.6-3.2s2.2-2.6,4.8-3.6c0,0-5.1-6.8-5.4-9.4v-23.7s17.1-1.7,9.3,18.5c.1,0,9.8,16.2,28.4,20.8"/>
      <path class="cls-3" d="M74.7,368.2s-.7-1.7-7.5,1.6c0,0-2.2,2.2-5.8-1,0,0-4.1-6.2-10.3-2.3,0,0,3.9.3,6.5,4.6,0,0,2.9,6.5,10,2.3,0,.1,3.6-4.9,7.1-5.2"/>
      <path class="cls-3" d="M73.7,353.5h-4.1l4.4-4.1c-.3.2-1.4,1.6-.3,4.1M89.1,346h-15.4s-12,7.2-15.4,15.7l7.8,5.8s.6-8.1,8.7-6.2c0,0,11.5,8.4-3.9,11.3,0,0,5.7,6.8,10.9-2.6-.1.1,8.1-15.8,7.3-24Z"/>
      <polyline class="cls-3" points="73.2 341.8 72.9 334.4 76.8 338.5 81.1 333.6 85.5 339.2 89.3 333.6 90 341.8"/>
      <path class="cls-3" d="M201,280.9h0c1,0,2-.1,3.2-.2,0,0-7.4-11.4.7-20.8,0,0,5.8-10.2,17.1-2.9,0,0,4.8,4.8,5.1,12.6,0,0-6.7.3-10.5,11.3-1.5,4-2.6,9.6-2.7,17h-4.6s-1.2-3.9-.6-5.9c0,0-6.2,1-7.8.3,0,0-1.2,4.3.3,5.8l-4.8-.7s-1.2-3.6-1-5.8c0,0-2.6,0-4.1-1.3,0,0-2.7,2.9-2.7,5.6l-4.8-2.2s.7-3.9,1.9-4.9c0,0-6.4-1.2-7.7-2.2l-1-5.6-4.5-23.7s12-3.5,16,8.2c0,0,1,6.5-.2,12.1,0,0,.6,3,7.9,3.5,1.5-.2,3.1-.1,4.8-.2"/>
      <path class="cls-3" d="M199.2,251.2c.3-1.3,1-3.2,1.8-4,0,0-7.4-1.2-8.4-1.9l-3.6,5.1-5.5-1.6,1.9-4.3-8.1-2.9-2.2,4.3-4.5-2.6,2.7-4.6-7.2-2.6-.1-26.1s13.1-1.2,12.8,11.5v.1c-.1,2-.4,4.5-1.3,7.3,0,0,11,2.9,14.8,1,0,0,10.3,14,15.1,16.6,0,0-1.6,1.9-2.9,4.8v-.1c-.2.4-.4,1-.6,1.5h-5.1c.1,0,.2-.7.4-1.5"/>
      <path class="cls-3" d="M205.7,221.6c-3,1.5-6.2,2.9-9.8,4l-2.9-3.9s18.5-4.9,26.7-15.2l6.2-.7c-.1,0-6.5,8.8-20.2,15.8"/>
      <path class="cls-3" d="M222.2,221.6c10.3-7.8,21.7-19.8,25-35.9l-3.2-6.8s-.4,23.7-31.3,42.7c-4.1,2.6-8.8,5-14.1,7.3l3.8,4.3c-.2-.1,9.3-3.9,19.8-11.6"/>
      <path class="cls-3" d="M228.3,221.6h0c-6.2,5.4-13.9,10.5-23.7,14.9l3.6,3.5s13.7-4.3,27.5-18.4c6-6.4,12.3-14.5,17.3-25.2l-3-6.2s-4.1,16.2-21.7,31.4"/>
      <path class="cls-3" d="M240.7,221.6c-6.7,7.3-16.6,15.1-30.2,20.9l3.8,2.9s18-7.8,32.4-23.9c3.2-3.6,6.2-7.5,8.8-11.9l-1.6-7.8c-.1.1-3.4,9.3-13.2,19.8"/>
      <path class="cls-3" d="M267.9,204.5c-.8-9.5-4.7-15.1-5.6-19-.3-1.7-2.2-6.7-.2-9.7,3.8-5.1,10.2-4.8,14.3,4.3h4.8s-1.9-11.6-12.5-12.1c0,0-13.3-.3-12.6,13,0,0,1.5,9,5.3,18.4,0,0,3.8,6.7-.4,15.2,0,0-1.9,3.2-3.5,6.9-.8,2.2-1.5,4.7-1.3,6.7l4.5,4.6c-.6-5.1,1.2-9.4,2-11.3.7-1.8,6.1-7.9,5.2-17"/>
      <path class="cls-3" d="M269.7,239.6l-4.8-3.2s-.7-7.8,2.6-13.8c0,0,.2-.4.6-1.1,1.2-2.9,4.5-10.7,4-15.4l3.5,5.6s.3,4.8-2.7,10c-2.3,3.7-5.2,12.8-3.2,17.9"/>
      <path class="cls-3" d="M268.5,280.9h0c.8.1,1.6.2,2.1.1v3.9s-3.2.3-4.1-.3c0,0,.3,4.6,0,6.8,0,0,3.9,1,4.8,1l-.3,5.3s-3.6-.7-4.5-1.6l-.3,4.3s2.6,1.3,4.3,1l.2,4.8s-4.5-.3-5.7-1.6l-1.6,6.2h-29s-.7-21.5,19.2-9.7c0,0,7.5-3.2-2.6-19.8,0,0-1.2.1-3.1-.1-9.1-.3-16.7-6.4-19.1-19.5,0,0-1.3-6.2-5.1-10.2v-.1c-1.3-1.6-3.2-2.9-5.5-3.5,0,0,19-9.4,23.3-15.2,0,0-6.2,9.7,2.1,15.7,0,0,2.9,1.2,6.3,3.1,4.5,2.6,10.2,6.5,12.4,10.9,0,0,18.1,4.1,17.1-10.9v.1c0-.9-1.1-4.6-3.8-8.3-1.7-2.5-3.7-8.8-.3-15.8,0,0,1.5-2.9,2.5-5.7.4-1.2.8-2.5.8-3.4l1,3.4,1.5,4.8s-4.4,3.5-3.1,10.7c.9,5,5.3,8.8,6.4,14.2.4,2.9.3,7.4-2,10.9-1.3,2-8.3,9.1-20.5,5.1,0,0-1.9,8.4,4.1,13-.2-.1,1,.2,2.5.4"/>
      <path class="cls-3" d="M276.1,183l5.8.1s7.2,4.8,0,18.1c0,0-1,3.2,0,5.3,0-.1-12.2-7.3-5.8-23.5"/>
      <path class="cls-3" d="M211.6,207.7s-10,7.5-16.1,8.1c0,0-2.6.7-5,3.2l-4.3-2.6s0-3.5,4.3-4.5c0,0-7.5-5.3-8.2-7.5,0,0-3.2,1-4.1,3.9l-3.6-3.2s2.1-2.6,4.8-3.6c0,0-5.1-6.9-5.5-9.5v-23.6s17.1-1.7,9.4,18.5c0,0,9.7,16.3,28.3,20.8"/>
      <path class="cls-3" d="M224.8,195.1s-.6-1.6-7.4,1.6c0,0-2.2,2.3-5.8-1,0,0-4.3-6.2-10.3-2.2,0,0,3.9.3,6.4,4.6,0,0,3,6.5,10,2.2.1-.1,3.7-4.9,7.1-5.2"/>
      <path class="cls-3" d="M223.9,180.4h-4.3l4.5-4.1c-.3.2-1.3,1.6-.2,4.1M239.4,172.9h-15.4s-12,7.2-15.4,15.7l7.7,5.8s.7-8.2,8.7-6.2c0,0,11.5,8.4-3.9,11.4,0,0,5.8,6.8,11-2.6-.1,0,7.8-16,7.3-24.1Z"/>
      <polyline class="cls-3" points="223.5 168.7 223.2 161.2 227.1 165.4 231.2 160.5 235.7 166.1 239.5 160.5 240.3 168.7"/>
      <path class="cls-2" d="M189.7,376.7h19.2v-19.5l1.8-1.5v-1.5h-9.8v3.5h-3.5v-3.4l-9.7-.1v1.8l1.9,1.5M202.3,366.6c0-1.7-1.3-3-3-3s-3.1,1.3-3.1,3v6.5h6v-6.5h.1ZM184.9,380.1h14.2v4.4h8.1v-4.1h13v4.3h9.3v-4.3h14.4v4.3h8.2v-4.4h14.4v5l-3.7,5.3h-73.8l-4-5.6v-4.9h-.1ZM214.1,346.1l9.2-.1v4.7l3.9-.1v-4.6h9.3v1.9l-2.1,1.5v27.5h-18.3v-27.4l-1.9-1.5v-1.9h-.1ZM228.2,362.1c0-1.6-1.2-3-3-2.9-1.6,0-3,1.3-3,2.9v10h6v-10ZM243.4,377.3h19.1v-19.5l1.9-1.5v-1.5h-9.8v3.5h-3.4v-3.4l-9.7-.1v1.8l1.9,1.5v19.2ZM256.1,367.1c0-1.7-1.2-3-3-3-1.6,0-3,1.3-3,3v6.5h6v-6.5ZM237.6,443.3h33.5l-8.7-48.8h-73l-9.5,47.9h33.9l.6-27.4c0-3,5.1-5.5,11.5-5.5s11.5,2.5,11.5,5.5l.2,28.3ZM178.7,446.4h34.9v9.4h-42.7v-3.4l7.8-6ZM272.2,447h-34.8v9.4h38l3.1-3.7-6.3-5.7ZM203.6,414c0-2.3-1.8-4.3-4.1-4.3-2.5,0-4.3,1.9-4.3,4.3v9.2h8.4v-9.2ZM255.4,414.6c0-2.3-1.9-4.3-4.3-4.3-2.2,0-4.1,1.9-4.3,4.3l.1,9.2,8.4-.1.1-9.1h0ZM263.9,471.5l11-10.9h-104.2v10.9h93.2Z"/>
      <path class="cls-2" d="M38.9,203.9h19.1v-19.5l1.8-1.6v-1.5h-9.6v3.5h-3.8v-3.4l-9.8-.1v1.8l2.1,1.5M51.4,193.8c0-1.6-1.3-3-3-3s-3,1.5-3,3v6.5h5.9v-6.5h.1ZM34.7,207.3h14.2v4.4h7.9v-4.3h13.1v4.3h9.2v-4.3h14.3v4.3h8.1v-4.4h14.4v5l-3.6,5.3H38.6l-3.9-5.6v-4.7ZM63.9,173.1h9.1v4.6h3.9v-4.6l9.4-.1v2l-2.1,1.5v27.6h-18.1v-27.6l-2-1.5v-1.9h-.2ZM78.4,189.4c0-1.6-1.3-3-3-3s-3,1.3-3,3v9.8h5.9v-9.8h.1ZM93.1,204.4h19.1v-19.5l1.8-1.6v-1.5h-9.6v3.5h-3.8v-3.4l-9.8-.1v1.8l2.1,1.5.2,19.3ZM105.8,194.3c0-1.6-1.3-3-3-3s-3,1.5-3,3v6.5h5.9v-6.5h.1ZM87.3,270.3h33.3l-8.6-48.8H39.3l-9.5,47.8h33.8l.4-27.2c0-3,5.3-5.5,11.5-5.5s11.5,2.5,11.5,5.5l.3,28.2ZM28.8,273.5h34.7v9.4H20.9v-3.4l7.9-6ZM121.8,273.9h-34.7v9.4h42.5v-3.5l-7.8-5.9ZM53.4,240.7c0-2.3-1.9-4.3-4.3-4.3-2.2,0-4.1,1.9-4.1,4.3v9.2l8.4-.1v-9.1h0ZM105,240.7c0-2.3-1.8-4.3-4.1-4.3-2.5,0-4.3,1.9-4.3,4.3v9.2h8.5l-.1-9.2ZM20.5,287.5h109.3v10.9H20.5v-10.9Z"/>
      <path class="cls-1" d="M217.6,502.7h0c-21.3,4-43.1,6.2-65.3,6.3v-185.1h144.5v83.1c-.1,47.6-34.3,87.1-79.2,95.7M4.3,407v-83.1h144.5v185.1c-22.4-.1-44.2-2.2-65.6-6.4-44.9-8.6-78.9-48.1-78.9-95.6ZM148.8,153.9v166.5H4.3v-166.5h144.5ZM296.7,153.9v166.5h-144.5v-166.5h144.5ZM.8,149.6v259.4c0,48.6,34.7,89.1,80.8,97.9,22.3,4.3,45.3,6.5,68.9,6.5s46.4-2.1,68.7-6.5v.1c46.2-8.8,81-49.3,81-98V149.6H.8Z"/>
      <path class="cls-2" d="M150.4,112.2c-41.4,0-81.1,6.5-118.4,18.7l-6.9-21.4c39.5-12.8,81.6-19.8,125.4-19.8s85.8,6.9,125.4,19.8l-6.9,21.4c-37.3-12.2-77.2-18.7-118.6-18.7"/>
      <path class="cls-2" d="M289.4,68c-4.6,14.2-18,24.4-33.7,24.4-19.5,0-35.4-15.8-35.4-35.4,0-1.8.1-3.7.4-5.5l8.8,1.5c-.2,1.3-.2,2.7-.2,4,0,14.5,11.6,26.4,26.3,26.4,11.9,0,21.7-7.7,25.1-18.2l8.7,2.8"/>
      <path class="cls-2" d="M220.8,51.5c-2.7,17-17.3,30-35,30-19.5,0-35.5-15.9-35.5-35.5h9.1v.1c0,14.5,11.9,26.3,26.4,26.3,13.2,0,24.1-9.6,26.1-22.3l9,1.5"/>
      <path class="cls-2" d="M79.9,51.5c2.7,17,17.3,30,34.9,30,19.6,0,35.5-15.9,35.5-35.5h-9.1v.1c0,14.5-11.9,26.3-26.4,26.3-13.2,0-24.1-9.6-26.1-22.3l-8.8,1.4"/>
      <path class="cls-2" d="M11.5,68c4.6,14.2,17.9,24.4,33.6,24.4,19.5,0,35.4-15.8,35.4-35.4,0-1.8-.1-3.7-.3-5.5h-.1l-8.8,1.5c.2,1.3.3,2.7.3,4,0,14.5-11.9,26.4-26.4,26.4-11.6,0-21.7-7.7-25.1-18.2"/>
      <polyline class="cls-2" points="152.6 31.3 161.5 22.3 179.4 22.3 170.6 31.3 179.4 40.2 161.5 40.2"/>
      <polyline class="cls-2" points="295.2 49.6 289.5 38.4 295 21.3 300.8 32.5"/>
      <polyline class="cls-2" points="292 53.2 286.2 42 269.1 36.4 274.9 47.7 263.7 53.6 280.7 59.1"/>
      <polyline class="cls-2" points="221.1 36.7 211 44.2 193.3 41.4 203.5 33.9 196.1 23.6 213.8 26.4"/>
      <polyline class="cls-2" points="225.1 37.3 235.2 29.7 253 32.6 242.9 40.1 250.2 50.4 232.4 47.5"/>
      <polyline class="cls-2" points="223.8 32.5 216.2 22.3 219.1 4.5 226.6 14.7 236.9 7.3 234 25.1"/>
      <polyline class="cls-2" points="150.4 26.8 141.5 17.9 141.5 0 150.4 8.9 159.4 0 159.4 17.9"/>
      <polyline class="cls-2" points="148.4 31.3 139.5 22.3 121.6 22.3 130.4 31.3 121.6 40.2 139.5 40.2"/>
      <polyline class="cls-2" points="5.6 49.6 11.5 38.4 6 21.3 0 32.5"/>
      <polyline class="cls-2" points="9 53.2 14.7 42 31.7 36.4 26.1 47.7 37.3 53.6 20.3 59.1"/>
      <polyline class="cls-2" points="79.7 36.7 90 44.2 107.7 41.4 97.5 33.9 104.9 23.6 87.2 26.4"/>
      <polyline class="cls-2" points="75.9 37.3 65.6 29.7 47.9 32.6 58.1 40.1 50.7 50.4 68.4 47.5"/>
      <polyline class="cls-2" points="77.1 32.5 84.5 22.3 81.8 4.5 74.2 14.7 64.1 7.3 66.8 25.1"/>
    </g>
  </g>
</svg>