<?xml version="1.0" encoding="UTF-8"?>
<svg id="Capa_2" data-name="Capa 2" xmlns="http://www.w3.org/2000/svg" viewBox="0 0 134.8 230.07">
  <defs>
    <style>
      .cls-1 {
        fill: #000;
      }

      .cls-1, .cls-2, .cls-3, .cls-4, .cls-5 {
        stroke-width: 0px;
      }

      .cls-2 {
        fill: #ffb300;
      }

      .cls-3 {
        fill: #81003f;
      }

      .cls-4 {
        fill: #ca0026;
      }

      .cls-5 {
        fill: #fff;
      }
    </style>
  </defs>
  <g id="Capa_1-2" data-name="Capa 1">
    <g>
      <rect class="cls-4" x="1.93" y="68.92" width="64.76" height="74.62"/>
      <rect class="cls-5" x="68.21" y="68.92" width="64.76" height="74.62"/>
      <path class="cls-4" d="M68.21,145.15v82.95c9.99-.04,19.76-.99,29.26-2.82,20.21-3.85,35.45-21.56,35.45-42.89v-37.24"/>
      <path class="cls-5" d="M66.68,228.1v-82.95H1.93v37.24c0,21.24,15.19,38.94,35.36,42.89,9.59,1.79,19.36,2.73,29.4,2.82"/>
      <path class="cls-3" d="M22.77,203.45h0c.4-.04.9-.04,1.43-.13,0,0-3.36-5.11.27-9.32,0,0,2.6-4.53,7.66-1.3,0,0,2.15,2.2,2.29,5.74,0,0-2.96.13-4.71,5.06-.58,1.79-1.12,4.26-1.21,7.62h-2.02s-.58-1.75-.31-2.6c0,0-2.69.45-3.45.13,0,0-.58,1.93.09,2.6l-2.15-.31s-.54-1.57-.4-2.6c0,0-1.21,0-1.93-.54,0,0-1.17,1.3-1.17,2.46l-2.15-.99s.27-1.75.85-2.15c0,0-2.91-.58-3.5-1.03l-.45-2.51-2.02-10.62s5.38-1.61,7.22,3.67c0,0,.4,2.91-.13,5.42,0,0,.27,1.3,3.54,1.57.81-.13,1.48-.13,2.24-.18"/>
      <path class="cls-3" d="M21.91,190.19c.18-.58.49-1.52.85-1.79,0,0-3.36-.58-3.76-.9l-1.61,2.38-2.46-.72.85-1.93-3.67-1.3-.94,1.93-2.06-1.17,1.21-2.06-3.23-1.17v-11.65s5.83-.54,5.65,5.15c-.04.9-.18,2.02-.58,3.32,0,0,4.93,1.3,6.68.45,0,0,4.62,6.27,6.77,7.44,0,0-.76.9-1.34,2.15-.09.18-.18.4-.27.67h-2.29c.09-.18.13-.4.22-.81"/>
      <path class="cls-3" d="M24.83,176.88c-1.34.67-2.78,1.3-4.35,1.79l-1.34-1.75s8.29-2.24,12.05-6.86l2.69-.31s-2.91,4.03-9.05,7.13"/>
      <path class="cls-3" d="M32.22,176.88c4.66-3.5,9.72-8.87,11.25-16.09l-1.52-3.05s-.18,10.67-13.98,19.14c-1.84,1.17-3.94,2.24-6.36,3.32l1.75,1.93c.04-.09,4.26-1.79,8.87-5.24"/>
      <path class="cls-3" d="M34.95,176.88h0c-2.69,2.42-6.23,4.71-10.58,6.68l1.57,1.61s6.14-1.93,12.32-8.29c2.69-2.82,5.51-6.5,7.75-11.29l-1.3-2.78s-1.88,7.26-9.77,14.07"/>
      <path class="cls-3" d="M40.56,176.88c-3,3.27-7.44,6.81-13.53,9.41l1.75,1.3s8.02-3.5,14.52-10.71c1.39-1.57,2.78-3.36,3.94-5.33l-.72-3.5s-1.61,4.12-5.96,8.83"/>
      <path class="cls-3" d="M52.7,169.22c-.36-4.21-2.11-6.77-2.46-8.51-.18-.76-.99-3-.09-4.3,1.66-2.38,4.53-2.15,6.36,1.93h2.15s-.81-5.24-5.6-5.42c0,0-5.92-.13-5.65,5.83,0,0,.67,3.94,2.38,8.25,0,0,1.7,3-.18,6.81,0,0-.85,1.43-1.52,3.09-.4.99-.72,2.11-.67,3l2.06,2.06c-.31-2.29.49-4.21.85-5.06.49-.85,2.78-3.54,2.38-7.66"/>
      <path class="cls-3" d="M53.51,184.95l-2.15-1.43s-.31-3.5,1.21-6.14c0,0,.04-.18.18-.54.58-1.3,2.02-4.8,1.79-6.9l1.61,2.46s.09,2.15-1.25,4.48c-.99,1.7-2.29,5.78-1.39,8.07"/>
      <path class="cls-3" d="M52.97,203.45h0c.36.04.72.04.99.04v1.75s-1.43.13-1.93-.13c0,0,.13,2.06,0,3.09,0,0,1.75.45,2.15.45l-.13,2.29s-1.57-.31-2.02-.72l-.13,1.93s1.21.54,1.93.4l.13,2.2s-2.06-.13-2.6-.72l-.72,2.78h-13s-.31-9.63,8.69-4.35c0,0,3.32-1.43-1.21-8.87,0,0-.54,0-1.39-.04-4.08-.13-7.44-2.91-8.56-8.74,0,0-.54-2.69-2.24-4.57-.67-.72-1.52-1.3-2.46-1.57,0,0,8.47-4.21,10.4-6.86,0,0-2.69,4.35.99,7.04,0,0,1.25.54,2.78,1.39,2.06,1.17,4.62,2.87,5.6,4.88,0,0,8.07,1.84,7.62-4.88,0-.36-.49-2.06-1.7-3.72-.76-1.12-1.66-3.9-.13-7.08,0,0,.67-1.3,1.17-2.55.13-.54.31-1.12.31-1.52l.49,1.52.67,2.15s-1.97,1.57-1.39,4.75c.4,2.24,2.29,3.94,2.87,6.36.13,1.3.09,3.32-.94,4.88-.58.9-3.67,4.12-9.19,2.29,0,0-.85,3.81,1.93,5.83-.13.09.45.22,1.03.31"/>
      <path class="cls-3" d="M56.42,159.58l2.6.04s3.09,2.15-.04,8.16c0,0-.4,1.43,0,2.29,0,0-5.47-3.18-2.55-10.49"/>
      <path class="cls-3" d="M27.52,170.65s-4.48,3.36-7.17,3.67c0,0-1.21.31-2.29,1.43l-1.93-1.17s0-1.61,1.93-2.06c0,0-3.36-2.38-3.63-3.36,0,0-1.43.45-1.93,1.75l-1.61-1.43s.99-1.17,2.15-1.61c0,0-2.29-3.05-2.42-4.21v-10.62s7.66-.76,4.17,8.29c.04,0,4.39,7.26,12.73,9.32"/>
      <path class="cls-3" d="M33.48,165s-.31-.76-3.36.72c0,0-.99.99-2.6-.45,0,0-1.84-2.78-4.62-1.03,0,0,1.75.13,2.91,2.06,0,0,1.3,2.91,4.48,1.03,0,.04,1.61-2.2,3.18-2.33"/>
      <path class="cls-3" d="M33.03,158.42h-1.84l1.97-1.84c-.13.09-.63.72-.13,1.84M39.93,155.06h-6.9s-5.38,3.23-6.9,7.04l3.5,2.6s.27-3.63,3.9-2.78c0,0,5.15,3.76-1.75,5.06,0,0,2.55,3.05,4.88-1.17-.04.04,3.63-7.08,3.27-10.76Z"/>
      <polyline class="cls-3" points="32.8 153.17 32.67 149.86 34.42 151.69 36.34 149.5 38.32 152.01 40.02 149.5 40.33 153.17"/>
      <path class="cls-3" d="M90.08,125.88h0c.45,0,.9-.04,1.43-.09,0,0-3.32-5.11.31-9.32,0,0,2.6-4.57,7.66-1.3,0,0,2.15,2.15,2.29,5.65,0,0-3,.13-4.71,5.06-.67,1.79-1.17,4.3-1.21,7.62h-2.06s-.54-1.75-.27-2.64c0,0-2.78.45-3.5.13,0,0-.54,1.93.13,2.6l-2.15-.31s-.54-1.61-.45-2.6c0,0-1.17,0-1.84-.58,0,0-1.21,1.3-1.21,2.51l-2.15-.99s.31-1.75.85-2.2c0,0-2.87-.54-3.45-.99l-.45-2.51-2.02-10.62s5.38-1.57,7.17,3.67c0,0,.45,2.91-.09,5.42,0,0,.27,1.34,3.54,1.57.67-.09,1.39-.04,2.15-.09"/>
      <path class="cls-3" d="M89.27,112.57c.13-.58.45-1.43.81-1.79,0,0-3.32-.54-3.76-.85l-1.61,2.29-2.46-.72.85-1.93-3.63-1.3-.99,1.93-2.02-1.17,1.21-2.06-3.23-1.17-.04-11.7s5.87-.54,5.74,5.15v.04c-.04.9-.18,2.02-.58,3.27,0,0,4.93,1.3,6.63.45,0,0,4.62,6.27,6.77,7.44,0,0-.72.85-1.3,2.15v-.04c-.09.18-.18.45-.27.67h-2.29s.09-.31.18-.67"/>
      <path class="cls-3" d="M92.18,99.31c-1.34.67-2.78,1.3-4.39,1.79l-1.3-1.75s8.29-2.2,11.97-6.81l2.78-.31s-2.91,3.94-9.05,7.08"/>
      <path class="cls-3" d="M99.58,99.31c4.62-3.5,9.72-8.87,11.2-16.09l-1.43-3.05s-.18,10.62-14.03,19.14c-1.84,1.17-3.94,2.24-6.32,3.27l1.7,1.93c-.09-.04,4.17-1.75,8.87-5.2"/>
      <path class="cls-3" d="M102.31,99.31h0c-2.78,2.42-6.23,4.71-10.62,6.68l1.61,1.57s6.14-1.93,12.32-8.25c2.69-2.87,5.51-6.5,7.75-11.29l-1.34-2.78s-1.84,7.26-9.72,14.07"/>
      <path class="cls-3" d="M107.87,99.31c-3,3.27-7.44,6.77-13.53,9.37l1.7,1.3s8.07-3.5,14.52-10.71c1.43-1.61,2.78-3.36,3.94-5.33l-.72-3.5s-1.52,4.17-5.92,8.87"/>
      <path class="cls-3" d="M120.06,91.64c-.36-4.26-2.11-6.77-2.51-8.51-.13-.76-.99-3-.09-4.35,1.7-2.29,4.57-2.15,6.41,1.93h2.15s-.85-5.2-5.6-5.42c0,0-5.96-.13-5.65,5.83,0,0,.67,4.03,2.38,8.25,0,0,1.7,3-.18,6.81,0,0-.85,1.43-1.57,3.09-.36.99-.67,2.11-.58,3l2.02,2.06c-.27-2.29.54-4.21.9-5.06.31-.81,2.73-3.54,2.33-7.62"/>
      <path class="cls-3" d="M120.86,107.37l-2.15-1.43s-.31-3.5,1.17-6.18c0,0,.09-.18.27-.49.54-1.3,2.02-4.8,1.79-6.9l1.57,2.51s.13,2.15-1.21,4.48c-1.03,1.66-2.33,5.74-1.43,8.02"/>
      <path class="cls-3" d="M120.33,125.88h0c.36.04.72.09.94.04v1.75s-1.43.13-1.84-.13c0,0,.13,2.06,0,3.05,0,0,1.75.45,2.15.45l-.13,2.38s-1.61-.31-2.02-.72l-.13,1.93s1.17.58,1.93.45l.09,2.15s-2.02-.13-2.55-.72l-.72,2.78h-13s-.31-9.63,8.6-4.35c0,0,3.36-1.43-1.17-8.87,0,0-.54.04-1.39-.04-4.08-.13-7.48-2.87-8.56-8.74,0,0-.58-2.78-2.29-4.57v-.04c-.58-.72-1.43-1.3-2.46-1.57,0,0,8.51-4.21,10.44-6.81,0,0-2.78,4.35.94,7.04,0,0,1.3.54,2.82,1.39,2.02,1.17,4.57,2.91,5.56,4.88,0,0,8.11,1.84,7.66-4.88v.04c0-.4-.49-2.06-1.7-3.72-.76-1.12-1.66-3.94-.13-7.08,0,0,.67-1.3,1.12-2.55.18-.54.36-1.12.36-1.52l.45,1.52.67,2.15s-1.97,1.57-1.39,4.8c.4,2.24,2.38,3.94,2.87,6.36.18,1.3.13,3.32-.9,4.88-.58.9-3.72,4.08-9.19,2.29,0,0-.85,3.76,1.84,5.83-.09-.04.45.09,1.12.18"/>
      <path class="cls-3" d="M123.73,82.01l2.6.04s3.23,2.15,0,8.11c0,0-.45,1.43,0,2.38,0-.04-5.47-3.27-2.6-10.53"/>
      <path class="cls-3" d="M94.83,93.08s-4.48,3.36-7.22,3.63c0,0-1.17.31-2.24,1.43l-1.93-1.17s0-1.57,1.93-2.02c0,0-3.36-2.38-3.67-3.36,0,0-1.43.45-1.84,1.75l-1.61-1.43s.94-1.17,2.15-1.61c0,0-2.29-3.09-2.46-4.26v-10.58s7.66-.76,4.21,8.29c0,0,4.35,7.3,12.68,9.32"/>
      <path class="cls-3" d="M100.74,87.43s-.27-.72-3.32.72c0,0-.99,1.03-2.6-.45,0,0-1.93-2.78-4.62-.99,0,0,1.75.13,2.87,2.06,0,0,1.34,2.91,4.48.99.04-.04,1.66-2.2,3.18-2.33"/>
      <path class="cls-3" d="M100.34,80.84h-1.93l2.02-1.84c-.13.09-.58.72-.09,1.84M107.28,77.48h-6.9s-5.38,3.23-6.9,7.04l3.45,2.6s.31-3.67,3.9-2.78c0,0,5.15,3.76-1.75,5.11,0,0,2.6,3.05,4.93-1.17-.04,0,3.5-7.17,3.27-10.8Z"/>
      <polyline class="cls-3" points="100.16 75.6 100.02 72.24 101.77 74.12 103.61 71.93 105.63 74.44 107.33 71.93 107.69 75.6"/>
      <path class="cls-2" d="M85.01,168.81h8.6v-8.74l.81-.67v-.67h-4.39v1.57h-1.57v-1.52l-4.35-.04v.81l.85.67M90.66,164.29c0-.76-.58-1.34-1.34-1.34s-1.39.58-1.39,1.34v2.91h2.69v-2.91h.04ZM82.86,170.34h6.36v1.97h3.63v-1.84h5.83v1.93h4.17v-1.93h6.45v1.93h3.67v-1.97h6.45v2.24l-1.66,2.38h-33.07l-1.79-2.51v-2.2h-.04ZM95.95,155.1l4.12-.04v2.11l1.75-.04v-2.06h4.17v.85l-.94.67v12.32h-8.2v-12.28l-.85-.67v-.85h-.04ZM102.27,162.27c0-.72-.54-1.34-1.34-1.3-.72,0-1.34.58-1.34,1.3v4.48h2.69v-4.48ZM109.08,169.08h8.56v-8.74l.85-.67v-.67h-4.39v1.57h-1.52v-1.52l-4.35-.04v.81l.85.67v8.6ZM114.77,164.51c0-.76-.54-1.34-1.34-1.34-.72,0-1.34.58-1.34,1.34v2.91h2.69v-2.91ZM106.48,198.66h15.01l-3.9-21.87h-32.71l-4.26,21.47h15.19l.27-12.28c0-1.34,2.29-2.46,5.15-2.46s5.15,1.12,5.15,2.46l.09,12.68ZM80.08,200.05h15.64v4.21h-19.14v-1.52l3.5-2.69ZM121.98,200.32h-15.6v4.21h17.03l1.39-1.66-2.82-2.55ZM91.24,185.53c0-1.03-.81-1.93-1.84-1.93-1.12,0-1.93.85-1.93,1.93v4.12h3.76v-4.12ZM114.45,185.8c0-1.03-.85-1.93-1.93-1.93-.99,0-1.84.85-1.93,1.93l.04,4.12,3.76-.04.04-4.08h0ZM118.26,211.3l4.93-4.88h-46.7v4.88h41.77Z"/>
      <path class="cls-2" d="M17.43,91.38h8.56v-8.74l.81-.72v-.67h-4.3v1.57h-1.7v-1.52l-4.39-.04v.81l.94.67M23.03,86.85c0-.72-.58-1.34-1.34-1.34s-1.34.67-1.34,1.34v2.91h2.64v-2.91h.04ZM15.55,92.9h6.36v1.97h3.54v-1.93h5.87v1.93h4.12v-1.93h6.41v1.93h3.63v-1.97h6.45v2.24l-1.61,2.38H17.3l-1.75-2.51v-2.11ZM28.64,77.57h4.08v2.06h1.75v-2.06l4.21-.04v.9l-.94.67v12.37h-8.11v-12.37l-.9-.67v-.85h-.09ZM35.13,84.88c0-.72-.58-1.34-1.34-1.34s-1.34.58-1.34,1.34v4.39h2.64v-4.39h.04ZM41.72,91.6h8.56v-8.74l.81-.72v-.67h-4.3v1.57h-1.7v-1.52l-4.39-.04v.81l.94.67.09,8.65ZM47.41,87.07c0-.72-.58-1.34-1.34-1.34s-1.34.67-1.34,1.34v2.91h2.64v-2.91h.04ZM39.12,121.13h14.92l-3.85-21.87H17.61l-4.26,21.42h15.15l.18-12.19c0-1.34,2.38-2.46,5.15-2.46s5.15,1.12,5.15,2.46l.13,12.64ZM12.91,122.57h15.55v4.21H9.37v-1.52l3.54-2.69ZM54.58,122.75h-15.55v4.21h19.05v-1.57l-3.5-2.64ZM23.93,107.87c0-1.03-.85-1.93-1.93-1.93-.99,0-1.84.85-1.84,1.93v4.12l3.76-.04v-4.08h0ZM47.05,107.87c0-1.03-.81-1.93-1.84-1.93-1.12,0-1.93.85-1.93,1.93v4.12h3.81l-.04-4.12ZM9.19,128.84h48.98v4.88H9.19v-4.88Z"/>
      <path class="cls-1" d="M97.51,225.28h0c-9.55,1.79-19.31,2.78-29.26,2.82v-82.95h64.76v37.24c-.04,21.33-15.37,39.03-35.49,42.89M1.93,182.39v-37.24h64.76v82.95c-10.04-.04-19.81-.99-29.4-2.87-20.12-3.85-35.36-21.56-35.36-42.84ZM66.68,68.97v74.62H1.93v-74.62h64.76ZM132.96,68.97v74.62h-64.76v-74.62h64.76ZM.36,67.04v116.25c0,21.78,15.55,39.93,36.21,43.87,9.99,1.93,20.3,2.91,30.88,2.91s20.79-.94,30.79-2.91v.04c20.7-3.94,36.3-22.09,36.3-43.92v-116.25H.36Z"/>
      <path class="cls-2" d="M67.4,50.28c-18.55,0-36.34,2.91-53.06,8.38l-3.09-9.59c17.7-5.74,36.57-8.87,56.2-8.87s38.45,3.09,56.2,8.87l-3.09,9.59c-16.72-5.47-34.6-8.38-53.15-8.38"/>
      <path class="cls-2" d="M129.69,30.47c-2.06,6.36-8.07,10.93-15.1,10.93-8.74,0-15.86-7.08-15.86-15.86,0-.81.04-1.66.18-2.46l3.94.67c-.09.58-.09,1.21-.09,1.79,0,6.5,5.2,11.83,11.79,11.83,5.33,0,9.72-3.45,11.25-8.16l3.9,1.25"/>
      <path class="cls-2" d="M98.95,23.08c-1.21,7.62-7.75,13.44-15.68,13.44-8.74,0-15.91-7.13-15.91-15.91h4.08v.04c0,6.5,5.33,11.79,11.83,11.79,5.92,0,10.8-4.3,11.7-9.99l4.03.67"/>
      <path class="cls-2" d="M35.81,23.08c1.21,7.62,7.75,13.44,15.64,13.44,8.78,0,15.91-7.13,15.91-15.91h-4.08v.04c0,6.5-5.33,11.79-11.83,11.79-5.92,0-10.8-4.3-11.7-9.99l-3.94.63"/>
      <path class="cls-2" d="M5.15,30.47c2.06,6.36,8.02,10.93,15.06,10.93,8.74,0,15.86-7.08,15.86-15.86,0-.81-.04-1.66-.13-2.46h-.04l-3.94.67c.09.58.13,1.21.13,1.79,0,6.5-5.33,11.83-11.83,11.83-5.2,0-9.72-3.45-11.25-8.16"/>
      <polyline class="cls-2" points="68.39 14.03 72.37 9.99 80.4 9.99 76.45 14.03 80.4 18.02 72.37 18.02"/>
      <polyline class="cls-2" points="132.29 22.23 129.74 17.21 132.2 9.55 134.8 14.56"/>
      <polyline class="cls-2" points="130.86 23.84 128.26 18.82 120.59 16.31 123.19 21.38 118.17 24.02 125.79 26.48"/>
      <polyline class="cls-2" points="99.08 16.45 94.56 19.81 86.63 18.55 91.2 15.19 87.88 10.58 95.81 11.83"/>
      <polyline class="cls-2" points="100.88 16.72 105.4 13.31 113.38 14.61 108.85 17.97 112.12 22.59 104.15 21.29"/>
      <polyline class="cls-2" points="100.29 14.56 96.89 9.99 98.19 2.02 101.55 6.59 106.16 3.27 104.86 11.25"/>
      <polyline class="cls-2" points="67.4 12.01 63.41 8.02 63.41 0 67.4 3.99 71.43 0 71.43 8.02"/>
      <polyline class="cls-2" points="66.5 14.03 62.52 9.99 54.49 9.99 58.44 14.03 54.49 18.02 62.52 18.02"/>
      <polyline class="cls-2" points="2.51 22.23 5.15 17.21 2.69 9.55 0 14.56"/>
      <polyline class="cls-2" points="4.03 23.84 6.59 18.82 14.21 16.31 11.7 21.38 16.72 24.02 9.1 26.48"/>
      <polyline class="cls-2" points="35.72 16.45 40.33 19.81 48.26 18.55 43.69 15.19 47.01 10.58 39.08 11.83"/>
      <polyline class="cls-2" points="34.01 16.72 29.4 13.31 21.47 14.61 26.04 17.97 22.72 22.59 30.65 21.29"/>
      <polyline class="cls-2" points="34.55 14.56 37.87 9.99 36.66 2.02 33.25 6.59 28.73 3.27 29.94 11.25"/>
    </g>
  </g>
</svg>