<?xml version="1.0" encoding="UTF-8"?>
<svg id="Capa_2" data-name="Capa 2" xmlns="http://www.w3.org/2000/svg" viewBox="0 0 279.56 233.93">
  <defs>
    <style>
      .cls-1 {
        fill: #040505;
      }

      .cls-1, .cls-2, .cls-3, .cls-4, .cls-5, .cls-6, .cls-7, .cls-8, .cls-9 {
        stroke-width: 0px;
      }

      .cls-2 {
        fill: #f9b233;
      }

      .cls-3 {
        fill: #07090a;
      }

      .cls-4 {
        fill: #be1622;
      }

      .cls-5 {
        fill: #9b9c9c;
      }

      .cls-6 {
        fill: #f39200;
      }

      .cls-7 {
        fill: #99babb;
      }

      .cls-8 {
        fill: #e08170;
      }

      .cls-9 {
        fill: #d3d5d5;
      }
    </style>
  </defs>
  <g id="Capa_1-2" data-name="Capa 1">
    <g>
      <path class="cls-1" d="M10,169.07c.23-.74.71-1.5.64-2.21-.68-6.76-.76-13.49.26-20.23,2.39-15.79,9.77-28.83,21.66-39.4,5.43-4.83,11.72-8.23,18.34-11.07,5.37-2.3,10.11-5.32,13.4-10.33,2.22-3.37,3.47-7.02,3.55-11.03.08-3.56.05-7.13.05-10.69-.02-8.55,2.58-16.17,8.32-22.54,5.7-6.32,11.59-12.47,17.4-18.69,1.18-1.27,2.36-2.55,3.84-4.16v18.46c3.29.89,6.37,1.47,9.26,2.56,6.49,2.45,10.61,7.26,13.02,13.7.96,2.58,2.15,5.1,3.44,7.53.53,1.01.52,1.69,0,2.61-4.26,7.4-9.9,13.05-18.6,14.89-.16.03-.29.2-.54.38.83,1.06,1.67,2.07,2.45,3.12,6.51,8.7,9.68,18.39,8.55,29.31-.58,5.6-2.29,10.82-5.38,15.58-.43.66-.72,1.53-.72,2.31-.04,16.55-.03,33.1-.02,49.65,0,.8-.2,1.59.95,2.01,4.78,1.76,7.31,5.29,7.76,10.48h25.26c3.45-12.91,6.91-25.87,10.41-38.98h74.66c3.4,12.9,6.83,25.93,10.28,39.04,2.4,0,4.68,0,6.96,0,4.88,0,9.76-.01,14.64.02,2.31.02,3.81,1.05,3.78,2.49-.03,1.56-1.63,2.7-3.84,2.7-6.69,0-13.37.01-20.06.02-.42-.02-.84-.05-1.27-.05-31.05,0-62.1-.02-93.14-.01-13.11,0-26.21.05-39.32.08h-.74c-2.41,0-4.82,0-7.23,0-.97,0-1.94,0-2.91,0-1.57,0-3.13,0-4.7,0-3.99,0-7.98,0-11.98,0-1.32,0-2.65,0-3.97,0-.13,0-.26,0-.38,0-10.26-.02-20.53-.05-30.79-.06-4.1,0-8.21.05-12.31.07-5.4-.03-10.81-.07-16.21-.05-.26,0-.52.5-.78.77-.03.13,0,.24.11.33-.05.12-.03.22.08.3.03.13.05.25.08.38.09.27.18.55.28.82h0c-.04.12-.01.21.1.26.08.26.17.51.25.77.05.1.09.2.14.3,1.08,1.94,1.96,4.03,3.27,5.78,9.21,12.26,25.16,15.4,39.81,10.98,1.22-.33,2.45-.62,3.66-.98,8.05-2.41,15.53-6.13,22.94-10.02,1.32-.69,2.97-1.19,4.43-1.09,3.5.25,6.2,2.89,6.73,6.07.65,3.88-.88,6.93-4.44,8.58-4.69,2.17-9.43,4.25-14.14,6.37-5.31,1.77-10.58,3.69-15.94,5.28-7.9,2.35-15.99,3.32-24.15,1.64-14.84-3.05-26.77-10.41-33.46-24.46-6.08-12.78-4.63-25.06,3.86-36.44.79-1.05,1.61-2.08,2.42-3.12ZM22.27,191.08c-.38-.6-.77-1.2-1.15-1.8-1.61-2.38-3.21-4.76-4.93-7.3-1.5,2.85-2.5,5.64-2.55,8.71.24.23.47.66.71.66,2.53,0,5.05-.06,7.58-.1.11-.06.23-.12.34-.17ZM212.19,165.94c-4.48.02-8.95.04-13.43.06,0-.2,0-.4.01-.6.67-1.93,1.95-3.21,3.97-3.68l.7-.22c.75.03,1.5.06,2.24.09.12.04.25.07.37.11,1.33.6,2.66,1.21,4.15,1.88,4.02-1.8,5.78-3.57,6.31-6.46h-51.43c1.22,3.69,3.71,5.75,7.28,6.72,2.12-2.62,4.84-3.94,8.13-3.08,2.52.66,4.48,2.25,5.25,4.94-.13.1-.27.21-.4.31-5.07.07-10.15.37-15.2.1-2.01-.11-4.31-1.09-5.84-2.42-1.96-1.7-3.28-4.15-4.87-6.28.13-.09.26-.18.39-.26h-3.2c.22,6.88,6.8,13.12,14.17,13.18,12.92.11,25.84.11,38.76,0,7.93-.07,14-5.42,15.2-13.14h-3.29c-1.21,4.74-3.96,7.74-8.78,8.59-.17.06-.34.12-.51.18ZM96.94,191.34c-5.35-4.3-8.22-9.77-9.93-15.94-.19-.68-.2-1.43-.2-2.14,0-2.53.21-5.08.04-7.6-.72-10.46-5.72-18.3-14.97-23.18-7.76-4.1-15.77-3.9-23.72-.33-1.28.58-2.53,1.48-1.9,3.21.48,1.33,1.91,1.54,3.73.7,12.19-5.6,26.45.24,31.35,12.85,3.96,10.18.86,22.89-7.54,30.91-.45.43-.93.83-1.71,1.52h24.85ZM103.91,133.63c-1.07.9-2,1.49-2.67,2.3-.52.62-1.03,1.49-1.04,2.25-.06,14.31-.07,28.63-.02,42.94,0,1.29.3,2.66.79,3.85,1.78,4.27,5.48,6.68,9.32,6.15-.45-.4-.84-.76-1.24-1.1-3.56-3.05-5.37-6.59-5.26-11.61.32-14.79.12-29.59.12-44.78ZM102.71,55.15c.02,2.37,2.23,4.65,4.45,4.61,2.59-.05,4.77-2.25,4.7-4.76-.06-2.56-2.15-4.59-4.66-4.54-2.54.05-4.52,2.12-4.5,4.69Z"/>
      <path class="cls-3" d="M278.61,74.07c-2.35,12.2-11.6,19.27-24.02,19.09-17.93-.26-35.87-.09-53.81-.1-.17,0-.34.07-.74.15,0,.62,0,1.25,0,1.89.02,12.38.04,24.76.06,37.14,0,2.6-.85,3.96-2.45,3.93-1.59-.03-2.47-1.43-2.47-3.96-.01-16.79-.02-33.58-.03-50.37,0-.65,0-1.31,0-2.06h-4c0,.7,0,1.34,0,1.99,0,15.46.02,30.92,0,46.38,0,.83.06,1.86-.38,2.43-.54.7-1.64,1.48-2.38,1.38-.74-.1-1.47-1.17-1.96-1.96-.28-.44-.09-1.18-.09-1.78-.01-15.52-.02-31.04-.03-46.57,0-.6,0-1.19,0-1.96-1.42-.07-2.76-.15-4.26-.23v-8.03c-.79,0-1.44,0-2.08,0-7.31,0-14.62.02-21.92.02-14.25,0-25.62-11.04-25.83-25.27-.11-7.3-.06-14.62.16-21.92C132.76,10.97,144.06.06,157.31.04,184.92,0,212.52,0,240.12,0c2.04,0,4.08.3,6.12.46,8.26,2.33,14.11,7.52,17.19,15.44,1.32,3.41,1.65,7.22,2.3,10.87.24,1.35.13,2.76.17,4.14-.47,2.41-.11,4.47,2.37,5.67.42.2.76.57,1.14.86,0,0,0-.07,0-.07.12.12.23.23.35.35,1.94,2.55,3.88,5.1,5.81,7.65.07.16.15.32.22.48,0,0,0,.01,0,0,.39.83.77,1.66,1.15,2.48,0,0-.02-.02-.02-.02,2.69,8.44,1.91,17.1,1.67,25.73ZM206.32,8.61c.36.04.71.13,1.07.13,12.14,0,24.28-.01,36.42-.02,2.69,0,5.37,0,8.44,0-.5-.39-.7-.55-.91-.7-2.93-2.05-6.25-2.8-9.74-2.81-16.67-.04-33.33-.04-50-.06-.44,0-.87.06-1.65.13,1.56,1.31,2.84,2.39,4.13,3.47,2.56,2.47,5.09,4.97,7.7,7.39,5.38,5,8.33,11.12,8.75,18.48.47,8.22-1.8,15.38-8.01,21.04-2.5,2.28-5.01,4.55-7.51,6.82-1.22,1.11-2.44,2.22-3.9,3.55,2.81,0,5.22.07,7.62-.03,1.18-.05,2.41-.26,3.5-.69,4.8-1.87,8.61-4.99,11.99-8.91,6.48-7.51,8.34-16.16,6.78-25.64-1.38-8.45-6.09-14.96-12.83-20.09-.8-.61-1.52-1.32-2.28-1.99.14-.02.27-.05.41-.07ZM137.14,35.82h.23c0,3.57-.05,7.13,0,10.7.18,10.29,7.67,18.79,17.91,19.47,7.75.51,15.57.26,23.34-.02,3.64-.13,7-1.66,9.74-4.26,2.8-2.66,5.78-5.15,8.45-7.92,2.37-2.46,4.89-4.95,6.56-7.88,4.25-7.46,2.68-17.65-3.6-24.1-4.55-4.66-9.4-9.02-14.24-13.39-2.29-2.06-5.13-3.23-8.25-3.26-6.76-.08-13.52-.11-20.28,0-9.14.14-17.57,7.03-19.05,16.06-.79,4.78-.57,9.73-.81,14.6ZM265.8,41.17c0,1.77.02,3.21,0,4.65-.28,14.74-11.35,25.59-26.08,25.59-11.11,0-22.22,0-33.33,0-.58,0-1.16.05-1.88.08v8.14h-4.32v8.48c3.22,0,6.29,0,9.36,0,15.58-.01,31.16-.03,46.74-.04,11.49,0,17.73-9.6,17.52-17.78-.11-4.22-.02-8.45-.04-12.68-.04-6.61-2.72-11.97-7.97-16.44Z"/>
      <path class="cls-7" d="M278.61,74.07c.24-8.63,1.02-17.29-1.67-25.73.38.71.99,1.39,1.11,2.15.47,3.01.91,6.04,1.15,9.08.26,3.36.32,6.73.37,10.1.02,1.43-.21,2.87-.33,4.3-.21.03-.42.07-.62.1Z"/>
      <path class="cls-7" d="M276.96,48.35c-.38-.83-.77-1.66-1.15-2.48,1.28.41,1.3,1.41,1.15,2.48Z"/>
      <path class="cls-7" d="M275.81,45.86c-.07-.16-.15-.32-.22-.48.07.16.15.32.22.48Z"/>
      <path class="cls-3" d="M108.7,19.42v17.16c-2.53-.74-4.99-1.43-7.41-2.23-.32-.11-.6-.81-.63-1.26-.1-1.5-.09-3.01-.08-4.51,0-.33.1-.74.3-.97,2.47-2.84,4.97-5.65,7.47-8.47.12.1.24.19.36.29Z"/>
      <path class="cls-2" d="M184.85,137.71c2.13,1.64,4.06,3,5.79,4.58.27.25-.1,1.73-.6,2.16-.56.49-1.76.83-2.38.56-1.58-.68-3.1-1.63-4.42-2.73-.51-.42-.76-1.67-.53-2.34.26-.76,1.18-1.29,2.14-2.24Z"/>
      <path class="cls-6" d="M169.87,126.85c-.82-.74-1.82-1.23-2.06-1.98-.22-.65.17-1.93.72-2.31,1.31-.92,2.82-1.64,4.35-2.09.63-.18,1.94.37,2.19.92.34.75.33,2.3-.17,2.69-1.43,1.11-3.18,1.8-5.03,2.77Z"/>
      <path class="cls-6" d="M198.76,166c-4.09,0-8.18,0-12.27,0,.48-3.68,5.47-5.85,8.88-3.75,1.03.64,1.78,1.73,2.68,2.6.22.21.49.37.73.55,0,.2,0,.4-.01.6Z"/>
      <path class="cls-9" d="M90.39,196.61c-2.87.09-5.74.23-8.61.27-1.12.02-2.24-.17-3.36-.27,3.99,0,7.98,0,11.98,0Z"/>
      <path class="cls-9" d="M98,196.6c-.97,0-1.94,0-2.91,0,.97,0,1.94,0,2.91,0Z"/>
      <path class="cls-3" d="M202.75,161.72c.23-.07.47-.15.7-.22-.23.07-.47.15-.7.22Z"/>
      <path class="cls-3" d="M185.75,165.69c-.13.1-.27.21-.4.31.13-.1.27-.21.4-.31Z"/>
      <path class="cls-9" d="M105.98,196.61c-.25,0-.49,0-.74,0,.25,0,.49,0,.74,0Z"/>
      <path class="cls-7" d="M14.23,198.34c.09.27.18.54.28.82-.09-.27-.18-.54-.28-.82Z"/>
      <path class="cls-3" d="M205.7,161.59c.12.04.25.07.37.11-.12-.04-.25-.07-.37-.11Z"/>
      <path class="cls-3" d="M212.7,165.76c-.17.06-.34.12-.51.18.17-.06.34-.12.51-.18Z"/>
      <path class="cls-9" d="M74.45,196.6c-.13,0-.26,0-.38,0,.13,0,.26,0,.38,0Z"/>
      <path class="cls-7" d="M14.5,199.16c.09.02.17.03.26.05-.05.07-.11.14-.16.2-.11-.05-.14-.14-.1-.25Z"/>
      <path class="cls-7" d="M14.85,200.18c.1.08.14.18.14.3-.05-.1-.09-.2-.14-.3Z"/>
      <path class="cls-7" d="M14.07,197.66c.1.03.2.06.3.1-.07.07-.15.14-.22.2-.1-.08-.13-.18-.08-.3Z"/>
      <path class="cls-5" d="M206.32,8.61c.64-.08,1.29-.22,1.93-.22,13.87-.02,27.75-.02,41.62-.05.49,0,.98-.22,1.46-.33.2.16.4.31.91.7-3.06,0-5.75,0-8.44,0-12.14,0-24.28.02-36.42.02-.36,0-.71-.08-1.07-.13Z"/>
      <path class="cls-4" d="M184.56,23.92c7.02.07,12.33,5.45,12.3,12.48-.03,6.73-5.4,12.01-12.18,11.97-6.95-.04-12.32-5.44-12.23-12.3.09-7.02,5.27-12.21,12.12-12.14ZM186.54,32.8c-.04-1.79-1.62-3.32-3.4-3.31-1.8.01-3.57,1.85-3.55,3.67.02,1.68,1.89,3.36,3.68,3.29,1.78-.07,3.32-1.78,3.28-3.65Z"/>
      <path class="cls-3" d="M150.87,44.08c1.34,4.47,4.16,7.62,8.84,8.25,3.42.46,6.96.09,10.45.09,2.65,1.62,5.3,3.24,8.2,5.01-.7.06-1.24.15-1.79.15-5.01.04-10.02.1-15.03.08-8.22-.04-15.91-7.23-16.21-15.54-.18-4.98-.19-10.07.63-14.95,1.26-7.46,8.61-13.23,16.16-13.39,5.16-.11,10.32-.02,15.76-.02-2.63,1.82-5.02,3.48-7.41,5.13-4.3-.54-8.59-1.05-12.68,1.04-.2.11-.4.23-.6.34,0,0-.08-.02-.08-.02-.2.13-.4.27-.61.4,0,0-.13.03-.13.03-.23.14-.46.27-.69.41l-.03.02c-.14.1-.28.2-.42.3,0,0,.01-.02.01-.02-.64.56-1.29,1.12-1.93,1.68l.12.02s-.12,0-.12,0c-.23.27-.46.55-.68.82,0,0,.02-.03.02-.03-.23.38-.47.76-.7,1.14,0,0,.02-.01.02-.01-.05.04-.12.06-.14.11-2.62,5.56-1.81,11.4-1.34,17.2,0,0-.09.1-.09.1.16.55.32,1.1.47,1.64Z"/>
      <path class="cls-8" d="M151.95,25.04c.23-.38.47-.76.7-1.14-.23.38-.47.76-.7,1.14Z"/>
      <path class="cls-8" d="M150.87,44.08c-.16-.55-.32-1.1-.47-1.64.16.55.32,1.1.47,1.64Z"/>
      <path class="cls-8" d="M152.62,23.92c.23-.27.46-.55.68-.82-.23.27-.46.55-.68.82Z"/>
      <path class="cls-8" d="M155.67,21.11c.23-.14.46-.27.69-.41-.23.14-.46.27-.69.41Z"/>
      <path class="cls-8" d="M157.19,20.29c.2-.11.4-.23.6-.34-.2.11-.4.23-.6.34Z"/>
      <path class="cls-8" d="M155.22,21.42c.14-.1.28-.2.42-.3-.14.1-.28.2-.42.3Z"/>
      <path class="cls-8" d="M156.5,20.67c.2-.13.4-.27.61-.4-.2.13-.4.27-.61.4Z"/>
    </g>
    <path class="cls-6" d="M172.37,163.84v2.17h12.99s2.38-5.39-6.49-5.5-6.49,3.33-6.49,3.33Z"/>
    <path class="cls-6" d="M197.76,165.94s1.01-4.93,4.99-4.22c2.99.53,2.79-1.03,7.46,1.86s-11.45,2.43-11.45,2.43"/>
  </g>
</svg>