<?xml version="1.0" encoding="UTF-8"?>
<svg id="Capa_2" data-name="Capa 2" xmlns="http://www.w3.org/2000/svg" viewBox="0 0 1247.1 1522.87">
  <defs>
    <style>
      .cls-1 {
        fill: #bc808a;
      }

      .cls-1, .cls-2, .cls-3, .cls-4, .cls-5, .cls-6 {
        stroke-width: 0px;
      }

      .cls-2 {
        fill: #6f6e63;
      }

      .cls-3 {
        fill: #070809;
      }

      .cls-4 {
        fill: #fff;
      }

      .cls-5 {
        fill: #3d0d20;
      }

      .cls-6 {
        fill: #ae1340;
      }
    </style>
  </defs>
  <g id="Capa_1-2" data-name="Capa 1">
    <g>
      <path class="cls-4" d="M173.2,454.2c29.4,15.8,58.9,31.3,92,38,1.6.3,3.1,1.3,4.6,2-25,5.3-40.4,20.8-51.1,42.8,9.2,3.6,18.4,6.3,26.7,10.5,37.6,19.3,53.2,52.3,55.5,92.7,1.7,31.7-6.5,62.3-13.1,92.9-10,46.7-19.4,93.3-18.6,141.5,0,0,3.6,107.5,32.2,161.3l32.3-1.4c-7.3-12-13.7-53.7-13.7-53.7-1.3-15.5-3.8-30.9-4.6-46.4-.8-15.9-.2-31.8-.2-47.7,6.1,16.6,10,33.5,15.9,49.6,6,16.5,13.3,32.6,21,48.5,0,0,27.4,68.3,93.3,70.6l-20-73.2c-4.1-14.8-6.7-30.1-7.8-45.4-2-27.1-2.5-30.1-2.7-44.4-.1-6.1,0-12.2,0-18.3,1.6-.2,1.1-.1,2.8-.3,12.5,49.5,33.9,94.2,69.1,133.1,0,0,12.4,15.4,43.4,30.8l-30.4-85.6c-4.9-13.7-8.9-27.6-12.1-41.7-.5-2.1-1-4.2-1.4-6.1,0,0,27.2,57.8,110.1,97.3,0,0-32.4-135-31.3-240.9.5-50.2,8.6-93.8,31.3-113.5l-47.4-100.3c-4.5-9.4-8.3-19.2-11.5-29.1-3.2-10-6.1-19.1-7.6-23.8,30,63,102.7,136.3,102.7,136.3,8.4-11.8,16.2-22.7,24.2-33.9-30.3-36.6-53.4-76.7-75.2-117.8-18.2-34.3-35.9-68.9-60.4-99.6-47.6-59.5-107.4-93-185.4-90-79.4,3-160.8,54.8-167.5,155.6-.2,3.2,2.2,8.2,4.9,9.6ZM314.7,395.6c14.9-3.8,29.8-3.7,46.9,3.1-4.9,1.6-7.3,2.1-9.5,3.1-6.1,2.8-10.6,6.3-12,13.9-5.1,29.2-21.8,41.8-51.5,39.7-7.1-.5-14.2-1.6-21-2.3,7-26.9,18-50,47.1-57.5Z"/>
      <path class="cls-4" d="M660.6,650.4c-32.2,50.9-51.2,105.6-51.1,166.3,0,4.6.2,9.2.6,13.7.4,4.2,1.1,8.4,1.6,12.6,6.3-51.1,24.8-96.6,56-137.9-12,42.3-10.9,71.9-10.9,71.9,42.8-82.3,132.7-178.6,151-196.6,24.2-23.9,216-148,216-148,38.3-29,73.9-61,105.6-97.3,44.8-51.3,71.7-110.4,77.2-178.5,1.3-16.2-.5-32.6-.8-48.9-84,112.8-176.2,215.9-277.9,310.6,3.5-6.6,8.1-12.2,12.9-17.8,47.3-55.5,94.7-110.9,132.6-173.5,30.2-50,53.4-102.6,57.4-161.9,1.4-21.1.3-42.1-5.1-65.1-1.9,3.8-2.8,5.3-3.6,7-12.9,27.5-24.8,55.5-38.8,82.4-40,76.9-85.3,150.6-136.6,220.7-50.3,68.7-105.3,133.4-164.1,194.9-43.9,45.7-87.9,91.4-122,145.4Z"/>
      <path class="cls-1" d="M207.2,491.1l-50.2-21.1c-67.9,49.4-60.8,91.8-60.8,91.8,33.8-58.9,111-70.7,111-70.7Z"/>
      <path class="cls-1" d="M202.5,517l-54.7,22.8c52,3.9,54.7-22.8,54.7-22.8Z"/>
      <path class="cls-4" d="M1238.2,274.3c-54.9,76.9-395,324.9-395,324.9,405.5-37.7,395-324.9,395-324.9Z"/>
      <path class="cls-4" d="M865.4,680.8c346.1,24.3,372.8-230.7,372.8-230.7-73,70.6-372.8,230.7-372.8,230.7Z"/>
      <path class="cls-4" d="M1195,623.5c-42.4,29.8-296.7,131.9-296.7,131.9,205.7,73,296.7-131.9,296.7-131.9Z"/>
      <path class="cls-4" d="M887.4,829.9c138.1,87.9,235.5-65.9,235.5-65.9-13.4,16.5-235.5,65.9-235.5,65.9Z"/>
      <path class="cls-4" d="M779.1,288.8c-7.1,93-57.3,175.4-57.3,175.4,147.5-67.5,57.3-175.4,57.3-175.4Z"/>
      <path class="cls-4" d="M660.5,419.2c166.4-121.1,28.3-242.3,28.3-242.3,25.1,135-28.3,242.3-28.3,242.3Z"/>
      <path class="cls-4" d="M591,421.5c174.5-216.2-15.3-323-15.3-323,57.9,181.3,15.3,323,15.3,323Z"/>
      <path class="cls-6" d="M1067.5,927.6s41.9,1.6,27.2-13.1c-14.7-14.6-27.2,13.1-27.2,13.1Z"/>
      <path class="cls-6" d="M1107.5,1055.2c.3-17.8-24.4-9-24.4-9,0,0,24.1,26.8,24.4,9Z"/>
      <path class="cls-6" d="M141.3,1245c8.4,26.9,32.9-24.5,32.9-24.5,0,0-41.3-2.4-32.9,24.5Z"/>
      <path class="cls-6" d="M421.1,1379.7c21.5,5.6-2.7-32.3-2.7-32.3,0,0-18.9,26.7,2.7,32.3Z"/>
      <polygon class="cls-5" points="1017.4 971.2 1022.1 984 1060.6 984.3 1024.7 998.4 1024.4 1010.7 1132.2 973.3 1017.4 971.2"/>
      <polygon class="cls-5" points="1012.9 1075.6 1007.2 1088.7 1046.4 1116.1 999.1 1101.5 987.9 1110.6 1121.2 1152.8 1012.9 1075.6"/>
      <polygon class="cls-3" points="1014.5 904.9 944.7 943.3 947.2 957.9 1014.5 904.9"/>
      <path class="cls-2" d="M911.3,899.4s23.9,25.1,24.7,32c0,0,18.4-4.2,24.3-12.4.1,0-25.1-26.3-49-19.6Z"/>
      <path class="cls-2" d="M986.3,945.3s-18.4,11.8-22.4,18.8c0,0,21.2,57.4-14.1,97.2,0,0,37.3,8.4,43.6,14.3-.1,0,39.6-59.7-7.1-130.3Z"/>
      <polygon class="cls-5" points="826.1 986.9 842.6 988.5 830.1 845.2 797.1 996.3 815.6 991 824.2 945.3 826.1 986.9"/>
      <path class="cls-2" d="M949.8,1020.1s-84.6-58.3-215.2,28c0,0,36.9,8.6,43.7,16.5l5.5-24.1,1.8,12.1s80.3-46.4,153-12.1c0,0,11-9.4,11.2-20.4Z"/>
      <path class="cls-2" d="M790.4,1061.5s-2.4,6.3,2.7,10c0,0,72.6-40.8,127.3-13.5,0,0,4.9-.6,4.9-5.5.1-.1-40.5-34.8-134.9,9Z"/>
      <polygon class="cls-5" points="834.5 1168.2 896.3 1246.9 880.3 1163.2 864.1 1167.7 875.9 1201.4 850.2 1169 834.5 1168.2"/>
      <path class="cls-2" d="M751.6,1185.8c43.2,0,47.5-22.5,47.5-22.5-33.7,9.9-99.3,2.6-99.3,2.6,0,0,8.6,19.9,51.8,19.9Z"/>
      <path class="cls-2" d="M828.1,1185.8c-45.9,29.3-173.1,5.2-173.1,5.2,100.1,44.3,179.5,0,179.5,0-1-5.9-6.4-5.2-6.4-5.2Z"/>
      <path class="cls-2" d="M697.4,1129c-37.4,29.8-121.8,69.2-121.8,69.2,42.8,3.6,131.2-65.8,131.2-65.8-.7-6.6-9.4-3.4-9.4-3.4Z"/>
      <path class="cls-2" d="M539.9,1185.7c59.1,2.3,131.7-59.5,131.7-59.5-6.3-8.8-33.2-6.3-33.2-6.3,0,0-29.2,22.2-62.7,37.1s-35.8,28.7-35.8,28.7Z"/>
      <path class="cls-2" d="M420.8,1183.9c-7.8,0-8.8,4.7-8.8,4.7,147.7,143.6,314.1,39.7,314.1,39.7-211.1,77.8-305.3-44.4-305.3-44.4Z"/>
      <path class="cls-2" d="M526.7,1140.7s-1.4,9,4.7,17.7c0,0,42.6-18.1,45.9-22.4.1,0-23.3-14.1-50.6,4.7Z"/>
      <path class="cls-2" d="M440.4,1178.4s98.9,105.2,227.6,43.6c0,0-135.8,13.7-208-53.8,0,0-13.7-4.3-19.6,10.2Z"/>
      <polygon class="cls-5" points="596.4 1326.7 583.6 1282 565.6 1278.5 614.2 1449.2 614.2 1280 598.5 1282.4 596.4 1326.7"/>
      <polygon class="cls-5" points="496.5 1334.6 523.2 1272.6 494.9 1264.7 496.5 1334.6"/>
      <polygon class="cls-5" points="350.9 1361.7 391.3 1295.7 360.7 1287.9 350.9 1361.7"/>
      <path class="cls-2" d="M478.5,1264.7c-5.5-1.1-89.9,29.5-202.9-43.9,0,0,70.2,80.8,204.8,51.8,0,0,3.6-6.8-1.9-7.9Z"/>
      <polygon class="cls-5" points="239.1 1291 266.9 1243.2 256.7 1231 188.5 1351.1 295.6 1261.6 279.5 1249.8 239.1 1291"/>
      <polygon class="cls-5" points="202.5 927.5 209 916 183.1 885.1 218.1 907.6 233.6 893 117.2 831.8 202.5 927.5"/>
      <polygon class="cls-5" points="173.9 987.7 141.5 973.6 178.7 974.9 181.8 963.4 80.3 957.3 173.9 1003.4 173.9 987.7"/>
      <path class="cls-2" d="M160.3,1012.5s-26.2,74.3,12.6,119c0,0,5.8-25.9,20.7-40,0,0-19.1-36.6-19.4-69.3,0,0-1.6-7.8-13.9-9.7Z"/>
      <polygon class="cls-5" points="149.6 1123.2 100.7 1126.1 143.1 1109.1 137.6 1091 0 1154.3 158.5 1137.6 149.6 1123.2"/>
      <path class="cls-2" d="M256.4,1119.6s39.2-27.5,109.6-11.6l3.9-8.6s-88.7-18.2-113.5,20.2Z"/>
      <path class="cls-2" d="M373,1109.9s5.5,2.6,9.4-1.3-10.7-7.8-10.7-7.8l1.3,9.1Z"/>
      <path class="cls-2" d="M436.1,1083.2s-106.8-68.9-218,7.8c0,0,2.5,10.8,12.1,14.7,0,0,91-50,170.3-7.3,0,0,21.5-4,35.6-15.2Z"/>
      <path class="cls-2" d="M224.6,1065.4c-33-80.8,18.8-132.6,18.8-132.6,2.4-14.5-2.4-24.7-2.4-24.7-86.3,61.6-29.4,167.6-29.4,167.6,12.6-2.5,13-10.3,13-10.3Z"/>
      <path class="cls-2" d="M233.6,1061.1c8.6,2.4,15.3-6.3,15.3-6.3-25.5-39.7-6.7-95.3-6.7-95.3-37.6,48.6-8.6,101.6-8.6,101.6Z"/>
      <path class="cls-2" d="M416.2,1167.6c178.4-69.8,199.3-87.6,368.9-31.1,0,0,4.7-.7,4.8-8.3,0,0-155.5-71.2-289.5-5.5-133.9,65.7-251.3,82.4-307.2,22,0,0,72.3,70.9,268-19.6s288.3-20.4,335.9-7.8l4.7-9.8,1,12.3s122,27.5,163.9-40c0,0-25.2-3.6-30.9-6.4,0,0-50.8,48.3-144.2,10.2l-13.7,22.4-2.4-27.1s-85.8-44.3-199.9-25.5c-114.1,18.8-140.3,56.2-203.9,75l-4.3,26.1-11.8-22.8s-90.3,37.6-150.7-25.9c0,0-17.7,14.6-23.2,42.1.1-.1,56.1,89.5,234.5,19.7Z"/>
      <path class="cls-2" d="M988.7,1083.2s-12.4-1.8-15.2-2.2c0,0-28.9,79.1-170,51.5,0,0-2.6,3.1-2,9.4-.1,0,127.6,32.3,187.2-58.7Z"/>
      <path class="cls-4" d="M925.4,1155.9c301,319.7,321.7,124,321.7,124-102.6,4.2-321.7-124-321.7-124Z"/>
      <path class="cls-4" d="M976.5,1272.6c179.4,236,216.1,89.9,216.1,89.9-70.2,2.7-216.1-89.9-216.1-89.9Z"/>
      <path class="cls-2" d="M311.2,1220.1s70,52.9,129.2,32.6c0,0,7.1-9.4-4.3-14,0,0-76,.5-109-28.1,0,.1-13.3-.5-15.9,9.5Z"/>
      <path class="cls-4" d="M1132.2,1431.9c-73.8-5.5-165.5-89.1-165.5-89.1,113.2,204.6,165.5,89.1,165.5,89.1Z"/>
      <path class="cls-4" d="M776.7,1363.8s112.4,193.7,190,153.6c0,.1-99-45.1-190-153.6Z"/>
      <path class="cls-4" d="M944.7,1403.6c48.4,156.7,109.9,81.9,109.9,81.9-62.8-15.7-109.9-81.9-109.9-81.9Z"/>
    </g>
  </g>
</svg>