<?xml version="1.0" encoding="UTF-8"?>
<svg id="Capa_2" data-name="Capa 2" xmlns="http://www.w3.org/2000/svg" viewBox="0 0 1012.91 386.03">
  <defs>
    <style>
      .cls-1 {
        fill: #fff;
        stroke-width: 0px;
      }
    </style>
  </defs>
  <g id="Capa_1-2" data-name="Capa 1">
    <g>
      <path class="cls-1" d="M287.94,271.33c-1.16-.26-1.59-.45-2.02-.45-29.03-.02-58.07-.04-87.1.04-1.62,0-3.43.69-4.81,1.46-7.45,4.21-14.8,8.56-22.18,12.85-43.58,25.31-87.16,50.62-130.73,75.94-13.71,7.97-27.41,15.96-41.11,23.95.13.29.25.59.38.88.92,0,1.84,0,2.75,0,39.57-.25,79.14-.54,118.71-.69,3.83-.01,6.67-.89,9.55-2.94,48.93-34.74,97.94-69.4,146.93-104.09,3.11-2.2,6.16-4.45,9.63-6.96Z"/>
      <path class="cls-1" d="M347.09,269.29c-39.94,32.23-99.92,84.18-140.25,116.73,40.22,0,78.95.04,117.68-.11,1.79,0,4.19-1.32,5.27-2.61,10.05-12.01,19.88-24.14,29.76-36.25,4.98-6.11,52.53-71.5,57.59-77.76h-70.04Z"/>
      <path class="cls-1" d="M971.8,361.18c-43.57-25.32-87.15-50.63-130.73-75.94-7.39-4.29-14.73-8.64-22.18-12.85-1.38-.78-3.19-1.46-4.81-1.46-29.03-.08-58.07-.06-87.1-.04-.43,0-.85.18-2.02.45,3.46,2.51,6.52,4.76,9.63,6.96,48.99,34.68,98,69.34,146.93,104.09,2.88,2.05,5.72,2.92,9.55,2.94,39.57.15,79.14.44,118.71.69.92,0,1.83,0,2.75,0,.13-.29.25-.59.38-.88-13.7-7.98-27.39-15.98-41.11-23.95Z"/>
      <path class="cls-1" d="M550.49,270.84h0c0-.08,0,0,0,0-.87-.23-8.78.05-9.24.05-11.6-.02-23.2-.04-34.8-.04-11.6,0-23.2.02-34.8.04-.45,0-.91.22-1.77.45,0,.08,0,.17-.01.25-.87.52-1.68,1.27-2.03,1.94-19.31,36.09-38.49,72.23-57.68,108.36-.66,1.24-1.22,2.51-1.92,3.94h196.43c-.69-1.43-1.26-2.71-1.92-3.94-19.19-36.13-32.95-74.95-52.26-111.04Z"/>
      <path class="cls-1" d="M595.77,269.29c5.06,6.26,52.61,71.65,57.59,77.76,9.87,12.11,19.71,24.24,29.76,36.25,1.08,1.29,3.47,2.6,5.27,2.61,38.73.15,77.46.11,117.68.11-40.33-32.55-100.31-84.5-140.25-116.73h-70.04Z"/>
    </g>
    <g>
      <path class="cls-1" d="M206.72,95.8c-9.63-8.67-24.79-13.48-45.49-13.48,0,0-38.71-.48-48.82,1.2v162.23h29.57v-64.99c4.81,1.2,10.59,1.44,16.85,1.44,20.46,0,38.51-6.02,49.58-17.81,8.18-8.42,12.52-19.98,12.52-34.66s-5.29-26.24-14.2-33.94ZM164.16,163.43h-9.7v-62.94h9.57c23.11,0,35.95,8.78,35.95,30.2s-10.55,32.73-35.82,32.73Z"/>
      <polygon class="cls-1" points="249.08 245.75 340.31 245.75 340.31 228.18 282.59 228.18 282.59 169.69 333.08 169.69 333.08 152.36 282.59 152.36 282.59 102.06 340.31 101.09 340.31 83.52 249.08 83.52 249.08 245.75"/>
      <path class="cls-1" d="M410.34,83.52l-55.12,162.23h21.66l13.58-41.13h64.16l13.97,41.13h22.38l-55.36-162.23h-25.27ZM398.07,178.36l15.89-46.94c3.13-9.87,6.26-19.74,8.67-29.36,2.41,9.39,4.81,19.01,8.42,29.61l15.89,46.69h-48.86Z"/>
      <polygon class="cls-1" points="476.24 107.21 525.26 107.97 524.28 245.75 549.26 245.75 549.26 107.97 598.84 107.97 598.84 83.52 476.24 83.52 476.24 107.21"/>
      <path class="cls-1" d="M680.45,142.49c-40.09,0-69.86,51.81-69.86,103.32l30.5-.06c0-35.62,7.29-78.74,39.36-78.74s37.74,46.49,37.74,78.74l32.12.06c0-48.14-28.88-103.32-69.86-103.32Z"/>
      <polygon class="cls-1" points="623.43 83.98 611.49 84.06 611.49 107.97 623.43 107.97 623.43 83.98"/>
      <polygon class="cls-1" points="661.08 107.97 673.93 107.97 673.93 83.98 661.08 84.06 661.08 107.97"/>
      <polygon class="cls-1" points="648.23 83.98 635.38 84.06 635.38 107.97 648.23 107.97 648.23 83.98"/>
      <polygon class="cls-1" points="699.63 83.98 686.78 84.06 686.78 107.97 699.63 107.97 699.63 83.98"/>
      <polygon class="cls-1" points="738.18 107.97 751.03 107.97 751.03 83.98 738.18 84.06 738.18 107.97"/>
      <polygon class="cls-1" points="712.48 107.97 725.33 107.97 725.33 83.98 712.48 84.06 712.48 107.97"/>
      <polygon class="cls-1" points="871.52 83.72 871.52 218.21 797.03 108.17 784.61 107.4 784.61 245.79 804.88 245.75 804.88 149.59 870.08 245.95 900.5 245.95 900.5 83.72 871.52 83.72"/>
      <path class="cls-1" d="M688.03,43.29c.16,1.94,2.14,3.28,4,2.73,1.48-.44,2.4-1.73,2.27-3.31-.35-4.32-.72-8.63-1.1-12.94-.03-.37.04-.58.38-.77,1.11-.63,2.2-1.29,3.3-1.94,1.05-.63,2.1-1.26,3.24-1.94-.05.33-.09.57-.13.8-.23,1.25-.46,2.51-.7,3.76-1.21,6.43-2.38,12.86-3.63,19.28-.94,4.82-1.97,9.61-2.96,14.42-.89,4.32-1.78,8.63-2.65,12.95-.42,2.08.91,4.03,2.98,4.46,2.04.42,4.04-.88,4.49-2.95.42-1.91.84-3.81,1.25-5.72,1.11-5.1,2.22-10.19,3.33-15.29.26-1.21.53-2.42.79-3.62.05-.03.1-.07.16-.1.08.14.15.29.25.4,2.2,2.53,4.4,5.07,6.63,7.59.41.47.67.97.79,1.57.39,1.91.81,3.82,1.18,5.74.59,3.12,1.13,6.26,1.73,9.38.41,2.13,2.36,3.4,4.48,3.01,1.98-.36,3.33-2.24,3.01-4.31-.69-4.45-1.46-8.89-2.12-13.34-.39-2.58-1.36-4.86-3.1-6.82-2.33-2.62-4.62-5.27-6.91-7.92-.16-.18-.29-.49-.25-.71.94-5.11,1.91-10.22,2.88-15.33.1-.51.2-1.01.32-1.63.09.18.12.23.15.29,1.68,4.09,3.37,8.18,5.04,12.27.29.71.74,1.29,1.33,1.75,1.18.92,2.74,1.1,3.81.47,1.69-.99,2.22-2.71,1.37-4.66-2.09-4.79-4.23-9.57-6.32-14.36-.88-2.02-1.74-4.06-2.53-6.12-1.12-2.9-2.76-5.12-6.21-5.23-.67-.02-1.34-.23-2-.19-1.68.09-3.21.71-4.63,1.57-2.08,1.26-4.14,2.58-6.22,3.85-2.12,1.29-4.26,2.56-6.4,3.82-1.29.76-2.34,1.73-2.49,3.3-.08.82.02,1.67.09,2.51.37,4.43.75,8.85,1.12,13.28Z"/>
      <path class="cls-1" d="M709.85,14.13c3.9.03,7.12-3.07,7.16-6.89.05-4-3.06-7.21-7.02-7.24-3.89-.03-7.04,3.05-7.11,6.9-.07,4,3.05,7.2,6.96,7.23Z"/>
      <path class="cls-1" d="M636.63,43.29c.16,1.94,2.14,3.28,4,2.73,1.48-.44,2.4-1.73,2.27-3.31-.35-4.32-.72-8.63-1.1-12.94-.03-.37.04-.58.38-.77,1.11-.63,2.2-1.29,3.3-1.94,1.05-.63,2.1-1.26,3.24-1.94-.05.33-.09.57-.13.8-.23,1.25-.46,2.51-.7,3.76-1.21,6.43-2.38,12.86-3.63,19.28-.94,4.82-1.97,9.61-2.96,14.42-.89,4.32-1.78,8.63-2.65,12.95-.42,2.08.91,4.03,2.98,4.46,2.04.42,4.04-.88,4.49-2.95.42-1.91.84-3.81,1.25-5.72,1.11-5.1,2.22-10.19,3.33-15.29.26-1.21.53-2.42.79-3.62.05-.03.1-.07.16-.1.08.14.15.29.25.4,2.2,2.53,4.4,5.07,6.63,7.59.41.47.67.97.79,1.57.39,1.91.81,3.82,1.18,5.74.59,3.12,1.13,6.26,1.73,9.38.41,2.13,2.36,3.4,4.48,3.01,1.98-.36,3.33-2.24,3.01-4.31-.69-4.45-1.46-8.89-2.12-13.34-.39-2.58-1.36-4.86-3.1-6.82-2.33-2.62-4.62-5.27-6.91-7.92-.16-.18-.29-.49-.25-.71.94-5.11,1.91-10.22,2.88-15.33.1-.51.2-1.01.32-1.63.09.18.12.23.15.29,1.68,4.09,3.37,8.18,5.04,12.27.29.71.74,1.29,1.33,1.75,1.18.92,2.74,1.1,3.81.47,1.69-.99,2.22-2.71,1.37-4.66-2.09-4.79-4.23-9.57-6.32-14.36-.88-2.02-1.74-4.06-2.53-6.12-1.12-2.9-2.76-5.12-6.21-5.23-.67-.02-1.34-.23-2-.19-1.68.09-3.21.71-4.63,1.57-2.08,1.26-4.14,2.58-6.22,3.85-2.12,1.29-4.26,2.56-6.4,3.82-1.29.76-2.34,1.73-2.49,3.3-.08.82.02,1.67.09,2.51.37,4.43.75,8.85,1.12,13.28Z"/>
      <path class="cls-1" d="M658.45,14.13c3.9.03,7.12-3.07,7.16-6.89.05-4-3.06-7.21-7.02-7.24-3.89-.03-7.04,3.05-7.11,6.9-.07,4,3.05,7.2,6.96,7.23Z"/>
      <path class="cls-1" d="M645.91,17.73c.74-.1,1.25-.32,1.62-.53,1.49-.84,3.15-1.92,3.5-3.85.04-.21.05-.73.02-.98-.14-1.24-.31-2.48-.53-3.71-.22-1.19-.25-2.33.41-3.42.52-.87.97-1.77,1.49-2.73-.3-.06-.47-.12-.65-.13-2.21-.08-4.08,1.38-4.93,3.86-.72,2.08-.35,4.13.13,6.19.47,2.02-.34,3.35-2.35,3.84-.47.12-.98.13-1.47.13-.44,0-.88-.1-1.48-.18,1.31,1.18,2.74,1.73,4.24,1.52Z"/>
      <path class="cls-1" d="M645.61,13.15c-1.37.14-1.03.1-2.98.3,1.22,1.37,2.61.93,2.98-.3Z"/>
    </g>
  </g>
</svg>