<?xml version="1.0" encoding="UTF-8"?>
<svg id="Capa_2" data-name="Capa 2" xmlns="http://www.w3.org/2000/svg" viewBox="0 0 321.05 278">
  <defs>
    <style>
      .cls-1 {
        fill: #000;
      }

      .cls-1, .cls-2 {
        stroke-width: 0px;
      }

      .cls-2 {
        fill: #e57000;
      }
    </style>
  </defs>
  <g id="Capa_1-2" data-name="Capa 1">
    <g id="layer1">
      <g id="g1898">
        <g id="g1882">
          <path id="path1290" class="cls-2" d="M239.78,139.01l81.27,89.24c-8.93,9.22-21.43,14.87-35.13,14.87-14.59,0-27.39-6.25-36.32-16.06l-44.95-49.37-35.13-38.67,35.13-38.37,44.95-49.38c8.93-9.81,21.73-16.06,36.32-16.06,13.7,0,26.2,5.65,35.13,14.58l-81.27,89.24Z"/>
          <path id="path1292" class="cls-2" d="M81.27,139L0,228.24c8.93,9.22,21.43,14.87,35.13,14.87,14.59,0,27.39-6.25,36.32-16.06l44.95-49.37,35.13-38.67-35.13-38.37-44.95-49.38c-8.93-9.81-21.73-16.06-36.32-16.06-13.7,0-26.2,5.65-35.13,14.58l81.27,89.24Z"/>
          <path id="path1294" class="cls-1" d="M192.55,183.25l-32.06-35.3-32.06,35.3-74.18,81.45c8.15,8.15,19.57,13.3,32.06,13.3,13.32,0,24.46-5.43,32.88-14.66l41.3-45.07,41.03,45.07c8.15,8.96,19.83,14.66,33.15,14.66,12.5,0,23.91-5.16,32.07-13.3l-74.18-81.45Z"/>
          <path id="path1296" class="cls-1" d="M192.54,94.75l-32.06,35.3-32.06-35.3L54.24,13.3C62.39,5.16,73.8,0,86.3,0c13.32,0,24.46,5.43,32.88,14.66l41.3,45.07,41.03-45.07c8.15-8.96,19.84-14.66,33.15-14.66,12.5,0,23.91,5.16,32.07,13.3l-74.18,81.45Z"/>
        </g>
      </g>
    </g>
  </g>
</svg>