<?xml version="1.0" encoding="UTF-8"?>
<svg id="Capa_1" data-name="Capa 1" xmlns="http://www.w3.org/2000/svg" viewBox="0 0 416.9 418.62">
  <defs>
    <style>
      .cls-1 {
        fill: #fff;
        stroke-width: 0px;
      }
    </style>
  </defs>
  <path class="cls-1" d="M137.43.12c30.99,0,61.98-.26,92.96.08,24.56.27,49.13.97,73.67,2.08,14.99.68,30.09,1.58,44.84,4.16,7.77,1.36,15.14,6.07,22.19,10.14,4.94,2.85,9,7.21,13.51,10.83,11.91,9.55,16.91,23.04,20.29,37.09,2.7,11.21,3.39,22.91,6.21,34.08,3,11.9,2.86,23.93,4.03,35.93,3.32,33.9.88,67.82,1.32,101.72.13,9.9-1.2,19.82-1.76,29.74-.78,13.73-1.36,27.48-2.21,41.2-1.31,21.02-2.49,42.06-4.29,63.04-1.21,14.15-4.13,27.91-15.17,38.31-6.92,6.53-14.9,10.3-24.63,10.06-35.28-.86-70.56-2.01-105.85-2.36-34.14-.34-68.28,0-102.42.36-39.95.42-79.92.69-119.85,2.01-18.34.6-35.02-13.3-38.86-27.76-2.39-8.97-1.18-19.15-.3-28.67.89-9.66,3.41-19.16,5.12-28.74,2.47-13.81,4.85-27.64,7.26-41.46.14-.82.32-1.64.39-2.46.78-9.23,1.49-18.46,2.32-27.69,1.13-12.51,2.37-25.01,3.54-37.52.19-1.98.39-3.98.4-5.97.05-13.99.31-27.99-.02-41.98-.38-16.42-.58-32.89-2.17-49.21-1.54-15.76-5.39-31.29-7.08-47.04-1.68-15.63-6.79-30.59-7.06-46.56-.22-12.94,6.94-19.83,15.92-26.12C28.12,1.54,37.87-.01,47.97,0c29.82.04,59.64.01,89.47.01v.1ZM228.76,76.76c-13.72,0-30.53.01-47.34-.01-3.17,0-5.16.17-4.7,4.64,2.45,23.67,4.4,47.38,6.73,71.06.49,5-1.33,6.06-6.04,5.97-26.3-.47-52.61-.55-78.92-.94-3.84-.06-5.35.84-5.12,4.97.25,4.46-.6,8.97-.52,13.45.07,4.08-1.87,5.17-5.5,5.02-5.66-.24-11.32-.19-16.98-.44-2.67-.12-4.01.64-4.09,3.54-.14,5.16-.4,10.32-.89,15.46-.28,2.92.75,3.82,3.57,3.82,5.33,0,10.66.55,15.98.35,4.13-.15,5.25,1.54,4.93,5.3-.41,4.81-.16,9.7-.91,14.44-.65,4.13.57,5,4.53,5.06,28.97.44,57.94,1.19,86.91,1.63,3.87.06,4.94,1.2,4.38,4.93-.83,5.6-.97,11.31-1.96,16.87-.79,4.39.71,5.5,4.85,5.49,8.82-.01,17.65.34,26.47.64,11.98.41,11.97.44,13.61-11.25.05-.33.13-.65.18-.98,1.46-9.8,1.44-9.69,11.19-7.94,2.78.5,3.61,1.57,3.25,4.29-2.36,17.83-3.56,35.88-7.15,53.45-5.93,29.02-6.68,59.22-19.32,86.78-2.17,4.73.85,11.2,4.94,12.87,3.88,1.58,9.18-.55,11.82-5.17,1.21-2.12,2.05-4.58,2.47-6.99,2.25-12.95,4.42-25.93,6.36-38.93.45-2.98,1.52-3.94,4.46-3.7,6.13.5,12.29.7,18.44,1.1,2.51.17,4.03-.38,4.38-3.33.72-6.11,1.71-12.2,2.74-18.27.44-2.59-.27-3.6-3-3.64-5.66-.07-11.31-.51-16.97-.64-3.23-.07-4.41-1.21-3.77-4.6,1.09-5.72,2.01-11.5,2.57-17.29.31-3.15,1.68-3.83,4.49-3.66,13.29.78,26.59,1.53,39.9,2.08,3.35.14,4.38,1.32,3.89,4.58-.97,6.42-1.55,12.9-2.59,19.31-.52,3.2.12,4.63,3.63,4.61,3.65-.02,7.31.43,10.95.76,6.86.61,6.84.63,7.6-6.1,2.41-21.18,4.9-42.34,7.17-63.53.32-3,1.47-3.61,4.11-3.26,3.8.5,7.63.69,11.43,1.19,3.08.41,4.67-.44,4.74-3.86.1-5.33.39-10.66.86-15.96.25-2.85-.89-3.84-3.53-4.06-9.62-.81-19.25-1.61-28.85-2.68-3.6-.4-4.46.98-4.79,4.28-1.19,11.93-2.66,23.83-4.1,35.73-.4,3.33-.63,6.45-5.72,6.11-13.95-.93-27.94-1.42-41.92-1.93-2.9-.11-3.79-1.15-3.43-3.96.81-6.28,1.67-12.56,2.03-18.87.2-3.51,1.82-4.5,4.87-5.67,7.27-2.78,15.03-5.27,21.14-9.83,7.43-5.55,14.45-9.44,23.87-6.97,2.42.63,3.48-.5,3.78-3.11,1.43-12.39,3.31-24.74,4.5-37.15.42-4.39,1.44-6.02,6.19-5.62,11.2.93,11.22.68,10.89,11.64-.41,13.53-.04,13.97,13.83,13.58,1.18-.03,3.2-1.73,3.31-2.81.51-4.95.76-9.97.56-14.95-.15-3.72,1.16-4.71,4.62-4.16,3.28.51,6.64.54,9.94,1,3.24.45,4.63-.64,4.43-4.03-.28-4.65-.55-9.33-.36-13.98.14-3.59-1.06-4.97-4.69-5.28-13.61-1.14-27.18-2.63-40.79-3.79-3.24-.28-4.72-1.38-4.97-4.76-.31-4.31-.72-8.71-1.91-12.83-1.36-4.73.66-4.98,4.36-4.62,20.72,2,41.46,3.8,62.16,5.9,3.56.36,4.88-.44,4.49-4.04-.75-6.95-1.22-13.93-2.05-20.87-2.59-21.68-6.36-43.1-13.55-63.83-1.42-4.1-3.56-5.9-7.73-6.23-21.08-1.67-42.17-3.37-63.23-5.31-4.73-.43-4.91,1.27-3.87,5.06,3.08,11.23,6.34,22.43,8.71,33.82,2.57,12.36,4.27,24.91,6.22,37.4.26,1.65-.29,3.42-.46,5.14-1.17-1.04-2.4-2.02-3.5-3.14-3.86-3.9-7.77-7.76-11.46-11.81-1.25-1.38-2.34-3.17-2.79-4.96-1.14-4.51-2.16-9.09-2.68-13.7-.52-4.64-2.94-6.02-7.27-6.13-16.98-.43-33.96-1.08-54.03-1.75ZM92.06,377.53c0-.06,0-.12,0-.17,14.82,0,29.64-.04,44.45.04,2.72.01,4.24-.7,4.8-3.65,5.75-29.91,11.58-59.81,17.5-89.69.58-2.92-.09-4.02-3.05-3.9-3.29.14-4.27-1.42-3.7-4.69.92-5.24,1.36-10.57,2.15-15.84.38-2.52-.25-3.74-3.01-3.75-3.99-.02-8-.18-11.98-.47-2.85-.21-4.28.84-4.73,3.74-.74,4.77-2.03,9.46-2.56,14.24-.48,4.33-2.54,5.29-6.61,5.22-20.15-.38-40.3-.33-60.44-.73-4.85-.1-7.14.97-7.56,6.36-.65,8.28-1.98,16.54-3.57,24.71-3.88,19.94-8.09,39.81-12.15,59.72-1.45,7.11-.16,8.81,7.01,8.85,14.48.08,28.97.02,43.45.02ZM115.82,133.07c0,.39,0,.77,0,1.16,14.63,0,29.27-.13,43.9.09,3.88.06,4.84-1.03,4.39-4.83-1.09-9.24-1.66-18.55-2.62-27.81-2.22-21.23-6.17-42.11-12.75-62.46-.87-2.69-2.03-4.09-5.16-4.1-28.45-.15-56.9-.5-85.35-.65-7.4-.04-8.31,1.42-6.62,8.74,6.28,27.28,10.32,54.89,12.43,82.79.42,5.57,1.78,7.03,7.36,7.05,14.81.06,29.62.02,44.43.02ZM386.4,220.72q.64-13.43-11.19-14.52c-.17-.02-.34,0-.5-.04-4.72-1.29-6,.93-6.18,5.34-.52,12.46-1.5,24.91-2.05,37.37-.15,3.48-1.31,4.79-4.8,4.31-4.12-.57-8.27-1.14-12.4-1.11-1.3,0-3.45,1.79-3.71,3.07-.98,4.88-1.22,9.9-2,14.82-.54,3.37.46,4.74,3.99,5.02,9.61.76,19.21,1.74,28.78,2.86,6.3.74,6.6.71,6.97-5.45,1.09-17.77,2.12-35.53,3.08-51.66ZM199.49,282.66c0-.28,0-.56,0-.84-5.66,0-11.32.16-16.97-.07-2.77-.11-4.35.43-4.86,3.45-.94,5.58-2.07,11.13-3.31,16.66-.58,2.62.18,3.68,2.85,3.74,4.49.1,9,.78,13.46.49,5.16-.34,5.71,1.8,4.65,6.08-1.28,5.16-1.9,10.49-3.19,15.65-.7,2.81.1,3.56,2.74,3.55,5-.02,10,.27,14.98.08,1.25-.05,3.36-1.24,3.55-2.21,2.82-14.21,5.38-28.47,8.03-42.71.53-2.84-.61-3.94-3.45-3.9-6.16.09-12.32.03-18.48.03ZM353.48,377.37c5.15.42,10.34.53,15.42,1.36,4.21.69,5.11-1.08,5.36-4.73.71-10.13,1.87-20.24,2.52-30.38,1.13-17.42,5.02-12.91-13.54-15.34-3.22-.42-4.52.75-4.66,3.98-.2,4.65-.75,9.29-1.14,13.94q-.56,6.84-7.5,5.98c-3.3-.41-6.61-.83-9.92-1.18-3.45-.37-5.61.47-5.87,4.67-.33,5.3-1.19,10.6-2.24,15.82-.76,3.77.8,4.68,4.12,4.81,5.82.22,11.64.7,17.45,1.08ZM201.09,54.46c0,.28,0,.57,0,.85,8.81,0,17.62-.2,26.41.09,4.01.13,4.5-1.16,3.37-4.56-1.31-3.94-2.45-7.95-3.31-12.01-.6-2.84-2.07-3.77-4.81-3.8-18.11-.21-36.22-.46-54.34-.81-3.21-.06-3.66,1.21-2.82,3.91,1.32,4.29,2.71,8.58,3.63,12.95.58,2.73,1.9,3.44,4.44,3.42,9.14-.09,18.28-.04,27.42-.04ZM170.33,376.94c2.66,0,5.38.35,7.94-.14,1.5-.29,3.67-1.72,3.95-2.98,2.76-12.66,5.15-25.41,7.76-38.1.5-2.46.26-3.72-2.67-3.7-5.15.04-10.3-.14-15.45-.31-2.84-.1-4.04,1.17-4.59,3.97-1.95,9.78-4.16,19.51-6.27,29.26q-2.55,11.77,9.33,12ZM276.07,375.55c1.09.08,3.61.56,6.06.31,1.19-.12,3.04-1.45,3.23-2.49,1.56-8.5,2.77-17.07,4.17-25.6.48-2.92-.79-3.91-3.51-3.94-4.49-.05-8.99-.07-13.47-.41-2.73-.21-3.97.75-4.41,3.38-.95,5.74-2.02,11.46-3.07,17.19q-2.07,11.33,10.99,11.57ZM72.91,252.43c12.4.09,12.69.12,13.88-11.11,1.58-14.86,2.2-12.18-10.79-12.74-11.56-.5-11.57-.29-13.56,11.14q-2.2,12.62,10.47,12.71ZM349.63,300.4c-.83-.07-1.7,0-2.48-.24-4.59-1.4-6.26.68-6.55,5.04-.29,4.3-.9,8.59-1.49,12.87-.93,6.67-2.19,6.05,5.46,6.92,4.4.5,10.66,2.58,12.79.53,2.58-2.49,1.88-8.56,2.24-13.11.87-11.01.79-11.02-9.96-12ZM325.06,349.46c1.17,0,2.38-.2,3.49.04,4.42.96,6.37-.59,6.52-5.25.17-4.98.69-9.99,1.61-14.89.76-4.04-.93-4.91-4.39-4.89-4.6.03-10.67-2-13.4.21-2.77,2.25-2.37,8.54-3.12,13.1-1.8,11.02-1.74,11.03,9.28,11.67ZM264.85,56.05q8.91.24,5.78-8.1c-.41-1.09-.79-2.19-1.2-3.28-3.74-9.95-1.1-8.03-11.55-8.72-9.35-.62-9.35-.53-6.71,8.18.14.48.25.97.37,1.45q2.69,10.19,13.3,10.48Z"/>
  <path class="cls-1" d="M303.18,162.35c-1.28,20.01-9.79,39.53-30.44,51.91-17.28,10.37-40.72,4.83-55.02-11.75-14.83-17.18-23.12-55.74-7.01-82.34,14.14-23.34,42.52-29.1,65.39-12.75,17.11,12.22,25.57,28.45,27.08,54.92ZM252.28,149.78l-.81.02c0,11.32.04,22.63-.02,33.95-.02,3.09-1.24,5.03-4.88,4.73-3.39-.28-5.2-1.6-5.15-5.25.11-7.33.06-14.66.04-21.99-.02-7.33-.12-14.66-.08-21.98.02-4.44-3.44-3.4-5.72-3.39-.97,0-2.72,2.09-2.76,3.29-.65,15.97-1.41,31.96-1.27,47.94.03,4.06,2.22,8.88,4.97,11.98,6.72,7.59,25.17,9.04,32.94,2.56,3.6-3,7.69-7.75,7.98-11.96,1.1-15.71.98-31.54.66-47.31-.06-2.82-3.29-5.56-5.05-8.34-1.19,3.09-3.29,6.14-3.39,9.27-.33,9.3.2,18.63.24,27.95.02,4.16.15,8.42-.71,12.43-.37,1.75-2.9,3.76-4.82,4.29-3.13.86-3.14-1.99-3.19-4.18-.12-5.49-.15-10.99-.32-16.48-.52-16.3-1.11-32.59-1.62-48.88-.11-3.53-1.23-5.66-5.31-5.39-4.21.28-3.62,3.35-3.5,5.84.48,10.31,1.17,20.61,1.78,30.91Z"/>
  <path class="cls-1" d="M322.98,56.35c11.76.95,22.87,1.92,33.99,2.72,2.92.21,4.32,1.22,4.85,4.33,2.62,15.39,5.61,30.72,8.23,46.11,1.19,7.02.94,6.94-5.96,6.19-11.08-1.2-22.16-2.42-33.27-3.22-3.88-.28-4.76-1.93-5.39-5.41-2.73-15.2-5.69-30.36-8.89-45.47-1.19-5.62-1.51-5.65,4.1-5.37,1,.05,1.99.11,2.34.13Z"/>
  <path class="cls-1" d="M156.53,205.52c-12.14,0-24.28-.07-36.42.05-3.04.03-4.13-.97-3.88-4.05.49-5.97.54-11.97,1.16-17.92.12-1.15,2.03-3.03,3.11-3.03,21.29.1,42.58.39,63.86.8,1.08.02,2.63,1.24,3.12,2.29,2.95,6.32,5.52,12.82,8.48,19.14,1.44,3.07.46,3.83-2.5,3.82-12.31-.04-24.62-.02-36.93-.02,0-.36,0-.71,0-1.07Z"/>
  <path class="cls-1" d="M94.27,356.29c-8.64,0-17.29-.1-25.93.05-3.12.05-4.14-.8-3.51-4.03,3.25-16.47,6.27-32.98,9.64-49.43.27-1.33,2.61-3.18,4-3.19,18.26-.17,36.52,0,54.77-.05,2.96,0,3.38,1.28,2.89,3.67-3.31,16.12-6.63,32.24-9.88,48.37-.75,3.71-2.72,5.16-6.57,5.06-8.47-.23-16.95-.07-25.43-.07,0-.13,0-.26,0-.39Z"/>
  <path class="cls-1" d="M104.25,53.85c8.49,0,16.99.08,25.48-.05,2.82-.04,4.43.93,4.9,3.72,3.02,17.71,6.1,35.41,8.92,53.15.15.94-1.82,3.18-2.8,3.18-17.64-.06-35.29-.42-52.93-.61-3.63-.04-3.72-2.48-4.1-5.02-2.36-15.63-4.67-31.26-7.2-46.86-1.37-8.42-1.55-8.35,7.25-8.26,6.83.07,13.65.01,20.48.01,0,.24,0,.49,0,.73Z"/>
</svg>