<?xml version="1.0" encoding="UTF-8"?>
<svg id="Capa_2" data-name="Capa 2" xmlns="http://www.w3.org/2000/svg" viewBox="0 0 417.63 533.33">
  <defs>
    <style>
      .cls-1 {
        fill: #000;
      }

      .cls-1, .cls-2, .cls-3 {
        stroke-width: 0px;
      }

      .cls-2 {
        fill: #bc1142;
      }

      .cls-3 {
        fill: #75a928;
      }
    </style>
  </defs>
  <g id="Capa_1-2" data-name="Capa 1">
    <g>
      <path class="cls-1" d="M113.05,0c-2.7.08-5.6,1.08-8.9,3.68-8.07-3.11-15.89-4.19-22.89,2.14-10.8-1.4-14.32,1.49-16.98,4.87-2.37-.05-17.75-2.44-24.8,8.08-17.72-2.1-23.32,10.42-16.98,22.1-3.62,5.6-7.37,11.14,1.09,21.82-2.99,5.95-1.14,12.4,5.91,20.21-1.86,8.36,1.8,14.26,8.36,18.86-1.23,11.44,10.49,18.1,14,20.47,1.34,6.67,4.14,12.96,17.53,16.44,2.21,9.94,10.25,11.65,18.05,13.74-25.75,14.97-47.84,34.67-47.69,83l-3.77,6.73c-29.53,17.96-56.1,75.68-14.55,122.59,2.71,14.69,7.27,25.23,11.32,36.91,6.06,47.04,45.62,69.07,56.05,71.68,15.29,11.65,31.57,22.69,53.61,30.44,20.77,21.42,43.28,29.59,65.9,29.57.33,0,.67,0,1,0,22.63.01,45.13-8.15,65.9-29.57,22.03-7.74,38.32-18.79,53.61-30.44,10.43-2.61,49.99-24.63,56.05-71.68,4.05-11.67,8.6-22.22,11.32-36.91,41.55-46.92,14.98-104.64-14.55-122.6l-3.78-6.73c.15-48.33-21.94-68.02-47.69-83,7.79-2.08,15.84-3.8,18.05-13.74,13.39-3.48,16.19-9.77,17.53-16.44,3.5-2.37,15.22-9.02,14-20.47,6.56-4.6,10.22-10.5,8.36-18.86,7.05-7.81,8.91-14.26,5.91-20.21,8.47-10.68,4.71-16.21,1.1-21.81,6.34-11.68.75-24.2-16.98-22.1-7.05-10.52-22.42-8.13-24.8-8.08-2.66-3.38-6.17-6.27-16.97-4.87-7-6.34-14.82-5.25-22.89-2.14-9.58-7.56-15.92-1.5-23.17.79-11.6-3.79-14.25,1.4-19.96,3.52-12.65-2.67-16.5,3.15-22.56,9.29l-7.06-.14c-19.09,11.25-28.57,34.15-31.93,45.92-3.36-11.78-12.82-34.68-31.9-45.92l-7.06.14c-6.07-6.14-9.92-11.97-22.57-9.29-5.7-2.11-8.35-7.31-19.96-3.52C122.56,2.97,118.19-.15,113.04,0h0Z"/>
      <path class="cls-3" d="M75.06,49.49c50.63,26.1,80.07,47.22,96.19,65.2-8.26,33.1-51.34,34.61-67.09,33.68,3.23-1.5,5.92-3.3,6.87-6.06-3.95-2.81-17.97-.3-27.75-5.79,3.76-.78,5.52-1.54,7.27-4.31-9.24-2.95-19.2-5.49-25.06-10.37,3.16.04,6.11.71,10.24-2.16-8.28-4.46-17.12-8-23.98-14.82,4.28-.11,8.9-.04,10.24-1.62-7.58-4.69-13.97-9.92-19.26-15.63,5.99.72,8.52.1,9.97-.94-5.73-5.87-12.98-10.82-16.44-18.05,4.45,1.53,8.52,2.12,11.45-.13-1.95-4.39-10.29-6.98-15.09-17.24,4.68.45,9.65,1.02,10.64,0-2.17-8.86-5.9-13.83-9.56-18.99,10.02-.15,25.21.04,24.52-.81l-6.2-6.33c9.79-2.64,19.81.42,27.08,2.69,3.27-2.58-.06-5.83-4.04-9.16,8.32,1.11,15.84,3.02,22.63,5.66,3.63-3.28-2.36-6.56-5.25-9.83,12.85,2.44,18.3,5.87,23.71,9.3,3.93-3.76.23-6.96-2.42-10.24,9.69,3.59,14.68,8.22,19.94,12.8,1.78-2.4,4.53-4.17,1.21-9.97,6.88,3.97,12.06,8.64,15.9,13.88,4.26-2.71,2.54-6.42,2.56-9.83,7.15,5.82,11.69,12.01,17.24,18.05,1.12-.81,2.1-3.58,2.96-7.95,17.06,16.55,41.17,58.24,6.2,74.77-29.76-24.55-65.31-42.39-104.7-55.77h.01ZM343.71,49.49c-50.63,26.11-80.06,47.22-96.19,65.2,8.26,33.1,51.34,34.61,67.09,33.68-3.23-1.5-5.92-3.3-6.87-6.06,3.95-2.81,17.97-.3,27.75-5.79-3.76-.78-5.52-1.54-7.28-4.31,9.24-2.95,19.2-5.49,25.06-10.37-3.16.04-6.11.71-10.24-2.16,8.28-4.46,17.12-8,23.98-14.82-4.28-.11-8.9-.04-10.24-1.62,7.58-4.69,13.97-9.92,19.27-15.63-5.99.72-8.52.1-9.97-.94,5.73-5.87,12.98-10.82,16.44-18.05-4.45,1.53-8.52,2.12-11.45-.13,1.95-4.39,10.29-6.98,15.09-17.24-4.68.45-9.65,1.02-10.64,0,2.18-8.86,5.91-13.84,9.56-19-10.02-.15-25.21.04-24.52-.81l6.2-6.33c-9.79-2.64-19.81.42-27.08,2.69-3.27-2.58.06-5.83,4.04-9.16-8.32,1.11-15.84,3.02-22.63,5.66-3.63-3.28,2.36-6.56,5.25-9.83-12.85,2.44-18.3,5.86-23.71,9.3-3.93-3.76-.22-6.96,2.42-10.24-9.69,3.59-14.68,8.22-19.94,12.8-1.78-2.4-4.53-4.17-1.21-9.97-6.88,3.97-12.06,8.64-15.9,13.88-4.26-2.71-2.54-6.42-2.56-9.84-7.15,5.82-11.69,12.01-17.24,18.05-1.12-.81-2.1-3.58-2.96-7.95-17.06,16.55-41.17,58.24-6.2,74.77,29.75-24.55,65.29-42.39,104.68-55.78h0Z"/>
      <path class="cls-2" d="M270.7,386.53c.15,30.89-26.89,56.03-60.39,56.17s-60.77-24.8-60.91-55.68c0-.16,0-.32,0-.49-.15-30.89,26.89-56.03,60.39-56.17,33.5-.13,60.77,24.8,60.91,55.68,0,.16,0,.32,0,.49ZM174.96,226.77c25.17,16.41,29.77,53.71,10.27,83.31-19.49,29.6-55.7,40.3-80.87,23.89-.06-.04-.12-.08-.17-.11-25.17-16.41-29.77-53.71-10.27-83.31s55.7-40.3,80.87-23.89c.06.04.12.08.18.11h0Z"/>
      <path class="cls-2" d="M242.79,223.79c-25.13,16.46-29.66,53.78-10.12,83.36,19.54,29.57,55.76,40.2,80.89,23.73h0c25.13-16.46,29.66-53.78,10.12-83.36-19.54-29.57-55.76-40.2-80.89-23.73ZM49.36,253.69c27.13-7.27,9.16,112.24-12.92,102.44-24.28-19.53-32.1-76.73,12.92-102.44Z"/>
      <path class="cls-2" d="M362.91,252.2c-27.13-7.27-9.16,112.25,12.92,102.45,24.28-19.53,32.1-76.74-12.92-102.45h0ZM270.72,163.19c46.82-7.91,85.78,19.91,84.21,70.68-1.54,19.46-101.46-67.79-84.21-70.68h0ZM141.35,161.7c-46.83-7.91-85.78,19.92-84.21,70.69,1.54,19.46,101.46-67.79,84.21-70.69h0ZM208.61,149.86c-27.95-.73-54.77,20.74-54.83,33.19-.08,15.13,22.09,30.62,55.02,31.01,33.62.24,55.08-12.4,55.19-28.01.12-17.69-30.58-36.47-55.38-36.19h0ZM210.32,460.12c24.36-1.06,57.06,7.85,57.12,19.67.4,11.48-29.65,37.42-58.74,36.91-30.12,1.3-59.66-24.68-59.28-33.68-.45-13.2,36.68-23.51,60.89-22.9h0ZM120.32,390.06c17.35,20.9,25.25,57.62,10.78,68.44-13.7,8.26-46.95,4.86-70.59-29.1-15.94-28.5-13.89-57.49-2.69-66.01,16.74-10.2,42.6,3.58,62.51,26.67h0ZM296.84,383.44c-18.77,21.98-29.22,62.08-15.53,74.99,13.09,10.03,48.23,8.63,74.19-27.39,18.85-24.19,12.53-64.59,1.77-75.32-15.99-12.37-38.96,3.46-60.43,27.71h0Z"/>
    </g>
  </g>
</svg>