<?xml version="1.0" encoding="UTF-8"?>
<svg id="Capa_1" data-name="Capa 1" xmlns="http://www.w3.org/2000/svg" viewBox="0 0 621.69 466.17">
  <defs>
    <style>
      .cls-1 {
        fill: #58585a;
      }

      .cls-1, .cls-2 {
        stroke-width: 0px;
      }

      .cls-2 {
        fill: #fff;
      }
    </style>
  </defs>
  <path class="cls-1" d="M587.31,0H34.35C15.39,0,0,16.44,0,36.73v392.73c0,20.27,15.39,36.72,34.35,36.72h552.96c18.97,0,34.38-16.45,34.38-36.72V36.73c0-20.29-15.41-36.73-34.38-36.73Z"/>
  <path class="cls-2" d="M554.03,313c-13.74,27.05-33.31,48.38-58.76,63.98-25.46,15.58-54.46,23.38-87,23.38-1.92,0-7.7-.19-17.39-.54-9.67-.34-15.33-.53-16.95-.53-5.7,0-10.83.31-15.27.12-4.38-.17-10.95-1.07-19.76-1.07s-16.59-.49-24.45-.23c-7.87.27-13.14.53-16.06.53l-6.65.91c-2.48.61-5.08,1.08-7.73,1.34-11.1,1.85-16.8,6.01-19.42,6.01-2.29,0-3.41-2-3.41-6.01,0-2,1.79-3.45,5.39-4.35,11.09-3.27,18.23-5.81,21.42-7.64,3.16-1.79,5.41-4.89,6.74-9.26,2.61-7.09,4.28-19.17,5.02-36.27.73-17.09,1.09-32.54,1.09-46.34l-.39-51.73c-.04-7.18-5.51-12.81-11.95-12.12-10.46,1.15-22.46,1.76-35.99,1.9-3.58.05-7,1.97-9.06,5.22l-24.88,39.54c-14.06,22.19-26.23,40.45-36.52,54.81-10.27,14.37-22.03,28.08-35.27,41.16-13.22,13.09-27.18,23.49-41.88,31.22-14.68,7.73-29.95,11.59-45.79,11.59-5.55,0-9.06-.4-10.54-1.24-1.47-.81-2.21-2.03-2.21-3.67,0-3.1,1.55-4.9,4.66-5.46,11.57-1.1,23.41-6.23,35.56-15.4,12.16-9.16,24.04-21.15,35.71-35.86,11.64-14.71,22.55-30.03,32.7-45.95,10.13-15.88,22.91-36.76,38.31-62.56l3.67-6.17c3.73-6.26,1.56-14.74-4.54-17.9-10.39-5.35-19.23-11.45-26.53-18.33-9.97-9.34-17.39-19.77-22.31-31.22-4.89-11.44-7.33-23.26-7.33-35.46s2.36-23.29,7.12-34.46c4.72-11.19,11.7-21.15,20.92-29.87,9.23-8.71,20.7-15.74,34.42-20.98,13.7-5.27,29.13-7.91,46.28-7.91,6.54,0,22.08,1.13,46.64,3.4,24.59,2.27,38.83,3.4,42.75,3.4,8.89,0,16.69-.06,23.5-.22.29-.04.59-.04.9-.07,6.58-.7,12.9-1.46,18.89-2.34,9.96-1.65,20.31-2.44,31.02-2.44,21.86,0,42.76,4.01,62.7,12.03,19.92,8.01,37.71,19.62,53.24,34.76,15.54,15.13,27.76,33.59,36.64,55.31,8.88,21.75,13.3,46.13,13.3,73.16,0,32.84-6.85,62.77-20.56,89.81Z"/>
  <path class="cls-1" d="M277.45,61.03c-9.06-2.08-17.19-3.1-24.39-3.1-17.29,0-31.99,4.83-44.08,14.54-12.08,9.73-21.02,21.32-26.82,34.85-5.79,13.53-8.69,26.44-8.69,38.8,0,17.4,3.35,31.28,10.03,41.64,6.71,10.35,14.66,17.7,23.89,22.05,9.24,4.35,18.2,7.18,26.94,8.42,8.74,1.28,17.02,1.92,24.85,1.92,11.32,0,21.41-.8,30.3-2.33,5.42-.95,9.38-6.23,9.38-12.35-.14-81.13-2.01-125.97-5.62-134.49-1.5-4.54-6.74-7.87-15.8-9.95Z"/>
  <path class="cls-1" d="M465.9,79.59c-20.53-12.65-41.59-18.94-63.13-18.94-18.8,0-35.96,3.7-51.51,11.13-3.71,1.79-6.11,5.81-6.47,10.29-1.1,14.19-1.94,41.86-2.54,82.98-.73,50.14-1.1,93.32-1.1,129.57,0,1.45.1,8.22.32,20.3.24,12.07.47,24.29.69,36.63.08,5.19.15,9.42.2,12.77.08,5.15,3.11,9.65,7.51,11.31,11.25,4.28,20.14,7.32,26.73,9.2,7.89,2.26,17.84,3.37,29.92,3.37,30.34,0,55.24-8.07,74.65-24.21,19.45-16.13,33.51-36.74,42.14-61.82,8.65-25.06,12.98-51.2,12.98-78.41,0-34.3-6.61-63.72-19.79-88.32-13.2-24.63-30.06-43.24-50.6-55.85Z"/>
</svg>