<?xml version="1.0" standalone="no"?>
<!DOCTYPE svg PUBLIC "-//W3C//DTD SVG 20010904//EN" "http://www.w3.org/TR/2001/REC-SVG-20010904/DTD/svg10.dtd">
<svg version="1.0" xmlns="http://www.w3.org/2000/svg"
    width="512.000000pt" height="512.000000pt" viewBox="0 0 512.000000 512.000000"
    preserveAspectRatio="xMidYMid meet">

    <g transform="translate(0.000000,512.000000) scale(0.100000,-0.100000)"
        fill="#1a7db1" stroke="none">
        <path
            d="M3700 5040 c0 -8 -11 -37 -25 -65 -13 -27 -25 -56 -25 -62 0 -7 -4
-13 -10 -13 -5 0 -10 -8 -10 -18 0 -10 -7 -27 -15 -38 -8 -10 -15 -27 -15 -36
0 -10 -4 -18 -8 -18 -4 0 -16 -22 -27 -50 -11 -27 -23 -50 -27 -50 -4 0 -8 -6
-8 -13 0 -7 -11 -37 -25 -65 -14 -29 -25 -56 -25 -62 0 -5 -4 -10 -10 -10 -5
0 -10 -8 -10 -17 0 -10 -7 -27 -15 -37 -8 -11 -15 -28 -15 -38 0 -10 -3 -18
-8 -18 -4 0 -13 -15 -20 -32 -7 -18 -19 -46 -27 -61 -8 -16 -15 -35 -15 -43 0
-8 -4 -14 -8 -14 -4 0 -16 -22 -27 -50 -11 -27 -23 -50 -27 -50 -4 0 -8 -9 -8
-20 0 -11 -4 -20 -10 -20 -5 0 -10 -5 -10 -12 0 -10 -34 -89 -66 -151 -8 -16
-14 -35 -14 -43 0 -8 -3 -14 -8 -14 -4 0 -15 -19 -25 -42 -10 -24 -24 -55 -30
-70 -7 -16 -15 -28 -19 -28 -5 0 -8 -7 -8 -15 0 -13 -71 -15 -582 -15 l-583 0
-18 31 c-9 17 -17 37 -17 44 0 7 -3 15 -7 17 -12 5 -43 64 -43 82 0 9 -4 16
-10 16 -5 0 -10 7 -10 15 0 8 -4 15 -8 15 -4 0 -16 23 -27 50 -11 28 -23 50
-27 50 -4 0 -8 9 -8 19 0 11 -3 21 -7 23 -5 2 -28 44 -53 93 -25 50 -47 92
-50 95 -3 3 -14 25 -25 50 -11 25 -22 47 -25 50 -10 9 -60 115 -60 127 0 6 -3
13 -7 15 -12 5 -43 64 -43 82 0 9 -4 16 -10 16 -5 0 -10 6 -10 14 0 8 -3 16
-7 18 -5 2 -44 75 -88 163 -44 88 -83 162 -87 163 -5 2 -8 10 -8 17 0 7 -6 15
-12 18 -12 3 -17 -12 -45 -145 -3 -16 -9 -28 -14 -28 -5 0 -9 -10 -9 -22 0
-12 -4 -35 -10 -52 -5 -17 -17 -58 -26 -91 -8 -33 -20 -68 -25 -77 -5 -10 -9
-26 -9 -37 0 -18 -24 -107 -40 -146 -5 -11 -11 -31 -14 -45 -13 -64 -32 -129
-39 -136 -4 -4 -7 -20 -7 -36 0 -15 -4 -28 -8 -28 -7 0 -24 -64 -38 -147 -4
-18 -10 -33 -14 -33 -4 0 -10 -15 -12 -32 -7 -45 -29 -129 -39 -150 -5 -10 -9
-27 -9 -37 0 -11 -4 -23 -10 -26 -5 -3 -10 -17 -10 -29 0 -26 -26 -120 -41
-148 -5 -10 -9 -25 -9 -34 0 -20 -28 -119 -44 -154 -6 -14 -25 -39 -43 -57
-18 -17 -33 -35 -33 -38 0 -4 -6 -13 -13 -20 -6 -8 -32 -37 -57 -65 -25 -28
-63 -71 -85 -95 -22 -24 -49 -56 -60 -70 -10 -15 -37 -46 -60 -69 -22 -24 -56
-62 -75 -86 -19 -24 -46 -55 -60 -70 -14 -15 -41 -46 -60 -69 -19 -23 -50 -57
-67 -76 -18 -18 -30 -40 -28 -47 3 -7 31 -35 61 -63 31 -27 92 -84 135 -125
43 -41 100 -93 125 -115 26 -22 85 -77 132 -123 47 -46 105 -100 130 -120 25
-20 79 -68 118 -107 66 -63 120 -114 276 -255 27 -25 94 -89 150 -142 55 -54
104 -98 108 -98 3 0 59 -51 123 -114 76 -74 117 -121 117 -135 0 -12 4 -21 9
-21 5 0 12 -16 15 -35 4 -19 11 -35 16 -35 6 0 10 -11 10 -25 0 -14 5 -25 10
-25 6 0 10 -8 10 -17 0 -10 7 -27 15 -37 8 -11 15 -30 15 -43 0 -13 5 -23 10
-23 6 0 10 -9 10 -20 0 -11 4 -20 10 -20 5 0 12 -16 16 -35 3 -19 10 -38 15
-41 5 -3 9 -14 9 -25 0 -10 4 -19 8 -19 5 0 17 -26 28 -57 10 -32 21 -60 25
-63 3 -3 11 -21 18 -40 8 -19 24 -57 36 -85 13 -27 31 -71 41 -97 11 -27 22
-48 27 -48 4 0 7 -11 7 -25 0 -14 4 -25 10 -25 5 0 12 -16 16 -35 3 -19 10
-35 15 -35 5 0 9 -11 9 -24 0 -13 3 -26 8 -28 11 -5 42 -76 42 -98 0 -11 3
-20 8 -20 8 0 42 -73 42 -93 0 -6 7 -20 14 -30 12 -16 41 -17 345 -17 362 0
352 -1 366 58 3 17 11 34 16 37 5 4 9 15 9 26 0 10 5 19 10 19 6 0 10 8 10 18
0 17 17 60 41 104 5 10 9 25 9 33 0 8 5 15 10 15 6 0 10 8 10 18 0 9 7 30 15
46 8 15 15 35 15 42 0 8 5 14 10 14 6 0 10 9 10 20 0 22 31 93 43 98 4 2 7 15
7 28 0 13 5 24 10 24 6 0 10 8 10 18 0 9 7 30 15 46 8 15 15 35 15 42 0 8 5
14 10 14 6 0 10 9 10 20 0 22 31 93 43 98 4 2 7 15 7 28 0 13 5 24 10 24 6 0
10 8 10 18 0 9 7 30 15 46 8 15 15 35 15 42 0 8 5 14 10 14 6 0 10 9 10 20 0
22 31 93 43 98 4 2 7 15 7 28 0 13 4 24 9 24 5 0 12 15 15 34 5 26 32 58 126
147 67 62 126 117 134 121 7 4 47 40 88 80 42 40 95 90 119 112 150 133 197
176 238 216 26 25 75 70 110 100 35 30 91 82 125 115 35 33 82 77 106 97 48
42 166 148 245 223 29 28 76 70 104 95 29 25 67 59 86 76 l33 31 -37 41 c-61
68 -154 173 -191 215 -19 21 -57 63 -85 92 -27 28 -70 75 -94 104 -24 28 -66
75 -95 105 -28 29 -67 72 -86 95 -19 23 -45 52 -57 64 -11 12 -29 51 -38 87
-9 36 -21 73 -26 82 -5 10 -9 28 -9 41 0 13 -5 28 -10 33 -6 6 -13 34 -17 62
-3 29 -9 52 -13 52 -4 0 -10 12 -13 28 -3 15 -12 52 -22 82 -9 30 -19 72 -22
93 -3 20 -9 37 -13 37 -4 0 -10 12 -13 28 -25 119 -31 142 -39 142 -4 0 -8 13
-8 28 0 15 -4 32 -8 37 -5 6 -17 46 -27 90 -10 44 -22 82 -26 85 -3 3 -9 19
-12 35 -16 79 -33 144 -40 151 -4 4 -7 17 -7 29 0 12 -3 25 -7 29 -7 7 -26 72
-39 136 -3 14 -9 34 -14 45 -17 43 -40 128 -40 151 0 13 -4 24 -10 24 -5 0
-10 8 -10 19 0 23 -29 92 -30 71z m410 -2427 c0 -7 -183 -188 -505 -498 -307
-296 -400 -386 -537 -520 -70 -69 -134 -125 -143 -125 -8 0 -15 -4 -15 -10 0
-16 -93 -12 -127 5 -37 19 -80 60 -88 86 -4 10 -11 19 -16 19 -5 0 -9 9 -9 20
0 11 -4 20 -8 20 -5 0 -17 16 -28 35 -10 19 -22 35 -26 35 -5 0 -8 6 -8 14 0
8 -3 16 -8 18 -4 2 -25 31 -47 65 -39 60 -40 61 -57 43 -10 -11 -18 -24 -18
-30 0 -5 -3 -10 -7 -10 -5 0 -21 -23 -38 -50 -16 -28 -33 -50 -37 -50 -4 0 -8
-5 -8 -11 0 -17 -71 -127 -107 -165 -18 -19 -39 -34 -48 -34 -8 0 -15 -4 -15
-10 0 -6 -27 -10 -60 -10 -33 0 -60 4 -60 10 0 6 -7 10 -16 10 -8 0 -57 43
-109 95 -52 52 -97 95 -99 95 -3 0 -25 19 -49 43 -24 23 -92 87 -151 142 -59
55 -154 145 -211 200 -57 55 -126 120 -155 144 -28 24 -99 90 -156 145 -57 56
-138 132 -179 170 -41 38 -75 72 -75 77 0 5 72 9 160 9 174 0 163 3 236 -66
18 -17 57 -50 86 -75 28 -24 70 -61 92 -82 22 -22 48 -44 57 -51 9 -6 50 -41
90 -78 41 -36 85 -76 99 -88 84 -72 127 -110 165 -145 24 -22 67 -60 96 -85
30 -25 72 -63 96 -85 83 -79 82 -79 104 -59 10 9 19 23 19 31 0 7 4 13 9 13 5
0 12 11 15 25 4 14 11 25 16 25 6 0 10 7 10 15 0 8 4 15 9 15 5 0 12 8 15 18
4 10 14 27 24 38 9 11 25 33 34 49 l17 30 163 2 163 3 35 -53 c19 -28 37 -56
39 -62 2 -5 10 -16 18 -23 7 -7 27 -35 45 -60 56 -84 57 -84 86 -62 14 11 65
57 114 103 112 102 129 118 213 192 37 33 91 83 120 110 29 28 74 69 101 92
27 22 74 65 105 95 31 29 75 69 98 88 23 19 69 63 104 97 l62 61 153 1 c83 1
152 -2 152 -6z" />
    </g>
</svg>