<?xml version="1.0" encoding="UTF-8"?>
<svg id="Capa_2" data-name="Capa 2" xmlns="http://www.w3.org/2000/svg" viewBox="0 0 294.97 282.32">
  <defs>
    <style>
      .cls-1 {
        fill: #621b2c;
      }

      .cls-1, .cls-2, .cls-3 {
        stroke-width: 0px;
      }

      .cls-2 {
        fill: #f6f6f6;
      }

      .cls-3 {
        fill: #d12c42;
      }
    </style>
  </defs>
  <g id="Capa_1-2" data-name="Capa 1">
    <g>
      <path class="cls-3" d="M111.87,84.34c25.83,0,51.38-.29,77.21-.31,11.15,0,22.29,0,33.44,0,15.4.03,26.96,6.75,33.86,20.48,2.17,4.31,2.89,9.46,3.67,14.33.55,3.41.17,6.98.08,10.48-.17,6.55-3.42,9.76-9.95,9.77-15.33.02-30.65,0-45.98-.02-1.33,0-2.67,0-4,.04-7.32.28-12.37,6.98-8.64,15.07,1.32,2.86,4.48,3.73,7.6,3.77,5.16.06,10.33,0,15.49.04,1.31.01,2.62.26,3.93.39-.35.55-.62,1.19-1.08,1.64-3.12,3.1-4.19,6.47-2.43,10.82,1.86,4.58,5.46,5.19,9.61,5.21,3.49.02,6.97.16,10.46.24.04,5.9.08,11.8.12,17.69-1.64.05-3.34-.16-4.9.21-2.17.52-4.58,1.03-6.28,2.34-5.04,3.87-5.1,8.63-.62,14.53-1.73.4-3.45,1.11-5.18,1.15-6.32.16-12.65-.03-18.97.15-3.95.11-6.91,2.02-8.52,5.82-1.45,3.43-.84,6.56,1.36,9.35,2.1,2.65,5,3.53,8.39,3.51,15.31-.08,30.62-.06,45.93.02,2.75.01,5.51.48,8.26.74-1.99.03-3.99.03-5.98.08-3.51.1-3.81.13-3.54,3.62.44,5.69-1.59,10.79-4.02,15.49-5.11,9.87-13.39,14.88-24.84,14.84-44.45-.15-88.89-.06-133.34-.12-2.79,0-5.58-.46-8.35-.84-11.13-1.55-17.54-8.6-21.83-18.41-2.18-4.99-1.41-10.11-1.74-15.19,13.96-.07,27.91-.14,41.87-.21,2.33-.01,4.66.07,6.98-.06,5.4-.3,9.4-4.53,9.29-9.72-.11-5.36-3.46-8.74-9.29-8.91-8.3-.25-16.6-.26-24.91-.37,3.69-3.39,5.56-7.31,3.4-12.27-.71-1.63-1.76-3.11-2.65-4.66,8.43-.25,16.86-.5,25.3-.76,1.82-.06,3.66,0,5.46-.24,3.63-.5,6.64-3.41,7.5-7.04.78-3.28-.8-9.13-3.51-10.26-2.79-1.16-6.03-1.73-9.06-1.71-6.73.03-13.46.67-20.19.88-1.73.05-3.49-.55-5.23-.85.42-.66.84-1.32,1.27-1.97,4.45-6.64,1.24-14.24-6.64-15.63-1.44-.25-2.93-.24-4.39-.35-.03-5.72-.06-11.43-.09-17.15,3.79-.06,7.57-.08,11.36-.2,5.99-.19,8.83-3.49,8.74-9.47-.07-4.2-2.87-6.42-5.52-8.87,1.81-.14,3.62-.39,5.44-.39,16.48-.06,32.96-.02,49.43-.17,2.43-.02,5.01-.46,7.23-1.4,4.14-1.76,5.94-5.98,4.96-10.32-.97-4.3-4.39-7.2-8.92-7.21-23.97-.05-47.93-.05-71.9-.03-5.7,0-10.16,2.66-13.9,6.78-2.14,2.35-4.33,4.52-7.94,4.55-6.62.07-9.31-3.59-6.42-9.54,1.5-3.09,3.56-6.08,5.98-8.5,4.36-4.37,9.34-8.06,15.55-9.5,1.9-.44,3.89-.54,5.84-.79,2.57-.33,5.14-.65,7.71-.98,9.91.12,22.27.2,32.18.38M148.07,244.12v-.05c6.66,0,13.33.07,19.99-.03,4.16-.06,5.57-2,4.63-6.12-1.77-7.72-3.65-15.41-5.37-23.14-2.01-9.06-3.72-18.19-5.9-27.21-.87-3.58-.38-5.77,2.62-8.34,7.34-6.31,9.87-14.7,6.79-23.89-3.16-9.43-9.73-16.01-20.04-16.94-9.05-.82-16.82,2.24-22.12,10.29-6.52,9.9-5.36,23.18,3.68,30.7,3.09,2.57,3.16,4.76,2.44,7.89-3.78,16.64-7.55,33.29-11.3,49.94-1.08,4.82.53,6.83,5.59,6.88,6.33.07,12.66.02,18.99.02Z"/>
      <path class="cls-2" d="M106.72,70.61c-.12,3.58-.34,7.16-.33,10.75,0,2.06-.63,3.02-2.83,2.99-9.91-.17-19.82-.26-29.73-.38.07-2.99.18-5.98.21-8.98.36-31,15.25-53.21,42.18-67.18,33.99-17.64,72.4-3.61,92.33,24.41,9.04,12.71,14.08,26.63,13.74,42.36-.07,3.16.15,6.32.23,9.48-11.15,0-22.29,0-33.44,0,.03-4.15-.02-8.31.09-12.46.27-10.92-3.84-19.98-11.35-27.73-19.47-20.05-48.7-15.23-63.48,4.47-4.93,6.58-7.02,14.19-7.61,22.29Z"/>
      <path class="cls-1" d="M51.09,231.28c.33,5.09-.45,10.2,1.74,15.19,4.29,9.81,10.7,16.86,21.83,18.41,2.77.39,5.57.84,8.35.84,44.45.06,88.89-.02,133.34.12,11.46.04,19.73-4.97,24.84-14.84,2.43-4.7,4.46-9.8,4.02-15.49-.27-3.48.03-3.52,3.54-3.62,1.99-.05,3.99-.06,5.98-.08,3.94,1.16,4.86,4.56,4.97,7.85.36,9.97-2.38,19.02-9.27,26.51-2.67,2.9-5.2,6.05-8.33,8.39-6.66,4.98-14.28,7.53-22.73,7.53-46.27,0-92.53-.07-138.8.22-17.51.11-29.97-7.49-39.14-22.06-2.28-3.63-3.86-7.5-4.93-11.29-1.17-4.13-.74-8.97.04-13.31.49-2.74,3.68-4.08,6.57-4.34,2.63-.24,5.31-.04,7.96-.03Z"/>
      <path class="cls-2" d="M80.76,121.47c2.65,2.45,5.45,4.66,5.52,8.87.1,5.98-2.74,9.27-8.74,9.47-3.78.12-7.57.14-11.36.2-14.16-.03-28.31-.06-42.47-.08-4.33,0-8.67.19-13,0-7.17-.31-11.44-6.72-8.7-12.82,1.25-2.78,3.42-4.5,6.33-5.14,1.77-.39,3.63-.55,5.45-.56,21-.12,41.99-.21,62.99-.27,1.32,0,2.65.21,3.97.33Z"/>
      <path class="cls-2" d="M223.46,211.08c-4.48-5.9-4.42-10.66.62-14.53,1.7-1.31,4.11-1.82,6.28-2.34,1.56-.37,3.26-.16,4.9-.21,1.8.2,3.6.57,5.4.58,14.5.06,28.99.08,43.49.03,3.12-.01,5.93.4,8.21,2.78,4.76,4.97,2.73,12.85-3.9,14.73-1.41.4-2.95.47-4.44.47-17.66,0-35.32.04-52.98-.11-2.53-.02-5.05-.91-7.58-1.4Z"/>
      <path class="cls-2" d="M66.28,157.16c1.47.11,2.95.1,4.39.35,7.88,1.39,11.09,8.99,6.64,15.63-.43.65-.85,1.31-1.27,1.97-1.22.3-2.43.84-3.65.85-13.8.05-27.59,0-41.39.03-4.01,0-7.18-1.4-8.93-5.12-2.79-5.92,1.17-12.35,7.98-12.86,3.47-.26,6.98-.08,10.47-.09,6.98-.02,13.96,0,20.95-.1,1.61-.02,3.21-.43,4.81-.65Z"/>
      <path class="cls-2" d="M235.14,176.31c-3.49-.09-6.97-.23-10.46-.24-4.15-.02-7.75-.63-9.61-5.21-1.76-4.35-.69-7.72,2.43-10.82.45-.45.72-1.09,1.08-1.64,5.14-.16,10.28-.4,15.43-.46,6.66-.08,13.32-.11,19.97.01,4.18.08,7.37,2.59,8.63,6.36,1.19,3.56.18,7.72-3.02,9.76-1.84,1.17-4.29,1.77-6.5,1.89-5.97.33-11.96.27-17.95.36Z"/>
      <path class="cls-2" d="M75.79,195.08c.89,1.55,1.94,3.03,2.65,4.66,2.15,4.96.28,8.89-3.4,12.27-10.76.07-21.53.35-32.28.11-4.74-.11-8.45-4.53-8.43-8.84.02-4.42,3.75-8.49,8.66-8.54,10.93-.1,21.86.2,32.8.33Z"/>
      <path class="cls-3" d="M283.64,156.76c-5.03.09-9.52-4.27-9.71-9.42-.2-5.38,3.79-9.97,8.81-10.15,5.18-.18,10,4.38,10.13,9.6.12,4.97-4.43,9.89-9.23,9.97Z"/>
      <path class="cls-2" d="M19.14,204.09c-.09,5-4.64,9.09-9.93,8.93C3.95,212.85-.07,208.62,0,203.34c.07-5.06,4.57-9.17,9.85-8.98,5.06.18,9.38,4.7,9.29,9.72Z"/>
      <path class="cls-2" d="M148.07,244.12c-6.33,0-12.66.05-18.99-.02-5.07-.05-6.68-2.07-5.59-6.88,3.75-16.65,7.52-33.3,11.3-49.94.71-3.13.64-5.32-2.44-7.89-9.04-7.53-10.2-20.8-3.68-30.7,5.3-8.05,13.07-11.1,22.12-10.29,10.31.93,16.88,7.51,20.04,16.94,3.08,9.19.54,17.58-6.79,23.89-3,2.58-3.49,4.76-2.62,8.34,2.18,9.02,3.89,18.15,5.9,27.21,1.71,7.73,3.6,15.42,5.37,23.14.94,4.13-.46,6.06-4.63,6.12-6.66.1-13.32.03-19.99.03v.05Z"/>
    </g>
  </g>
</svg>